G04 #@! TF.FileFunction,Copper,L1,Top,Signal*
%FSLAX46Y46*%
G04 Gerber Fmt 4.6, Leading zero omitted, Abs format (unit mm)*
G04 Created by KiCad (PCBNEW 4.0.7) date 04/02/19 22:13:27*
%MOMM*%
%LPD*%
G01*
G04 APERTURE LIST*
%ADD10C,0.100000*%
%ADD11R,0.750000X0.800000*%
%ADD12R,0.800000X0.750000*%
%ADD13R,1.200000X1.200000*%
%ADD14R,1.550000X1.500000*%
%ADD15R,1.550000X1.275000*%
%ADD16C,1.550000*%
%ADD17C,1.250000*%
%ADD18R,1.350000X0.400000*%
%ADD19R,0.900000X0.500000*%
%ADD20R,1.060000X0.650000*%
%ADD21R,1.500000X0.600000*%
%ADD22C,0.800000*%
%ADD23C,0.600000*%
%ADD24C,0.400000*%
%ADD25C,0.250000*%
%ADD26C,0.254000*%
G04 APERTURE END LIST*
D10*
D11*
X152273000Y-115050000D03*
X152273000Y-113550000D03*
D12*
X160921000Y-117348000D03*
X162421000Y-117348000D03*
X148959000Y-117221000D03*
X147459000Y-117221000D03*
X162421000Y-104902000D03*
X160921000Y-104902000D03*
D13*
X149055000Y-107315000D03*
X146855000Y-107315000D03*
X149055000Y-109855000D03*
X146855000Y-109855000D03*
D14*
X168275000Y-110125000D03*
D15*
X168275000Y-108187500D03*
D16*
X168275000Y-107550000D03*
X168275000Y-114700000D03*
D17*
X165575000Y-113625000D03*
D18*
X165575000Y-112425000D03*
X165575000Y-111775000D03*
X165575000Y-109825000D03*
X165575000Y-110475000D03*
X165575000Y-111125000D03*
D17*
X165575000Y-108625000D03*
D15*
X168275000Y-114062500D03*
D14*
X168275000Y-112125000D03*
D19*
X151130000Y-108065000D03*
X151130000Y-106565000D03*
X151130000Y-109105000D03*
X151130000Y-110605000D03*
D20*
X150325000Y-115250000D03*
X150325000Y-114300000D03*
X150325000Y-113350000D03*
X148125000Y-113350000D03*
X148125000Y-115250000D03*
D21*
X162085000Y-115570000D03*
X162085000Y-114300000D03*
X162085000Y-113030000D03*
X162085000Y-111760000D03*
X162085000Y-110490000D03*
X162085000Y-109220000D03*
X162085000Y-107950000D03*
X162085000Y-106680000D03*
X156685000Y-106680000D03*
X156685000Y-107950000D03*
X156685000Y-109220000D03*
X156685000Y-110490000D03*
X156685000Y-111760000D03*
X156685000Y-113030000D03*
X156685000Y-114300000D03*
X156685000Y-115570000D03*
D22*
X156845000Y-117729000D03*
X166116000Y-104775000D03*
X164338000Y-107061000D03*
X167767000Y-104775000D03*
X165989000Y-116459000D03*
X167640000Y-116459000D03*
X164338000Y-115697000D03*
X149733000Y-104521000D03*
X151892000Y-116205000D03*
X163957000Y-113538000D03*
D23*
X154686000Y-106172000D03*
D22*
X158242000Y-114046000D03*
X158750000Y-105410000D03*
X146685000Y-114935000D03*
X158242000Y-115062000D03*
X160020000Y-108077000D03*
D23*
X159893000Y-112395000D03*
X146812000Y-105791000D03*
X145542000Y-110998000D03*
X159893000Y-114046000D03*
X166878000Y-111633000D03*
X163703000Y-112522000D03*
X153670000Y-106045000D03*
X154686000Y-108585000D03*
X152908000Y-108585000D03*
X155194000Y-114935000D03*
D24*
X167767000Y-104775000D02*
X166116000Y-104775000D01*
X164338000Y-106553000D02*
X166116000Y-104775000D01*
X164084000Y-108839000D02*
X164084000Y-107315000D01*
X164435000Y-109825000D02*
X164084000Y-109474000D01*
X164084000Y-109474000D02*
X164084000Y-108839000D01*
X164435000Y-109825000D02*
X165575000Y-109825000D01*
X164084000Y-107315000D02*
X164338000Y-107061000D01*
X164338000Y-107061000D02*
X164338000Y-106553000D01*
X167640000Y-116459000D02*
X165989000Y-116459000D01*
X165989000Y-116459000D02*
X165100000Y-117348000D01*
X165100000Y-117348000D02*
X163576000Y-117348000D01*
X162421000Y-117348000D02*
X163576000Y-117348000D01*
X164338000Y-116586000D02*
X164338000Y-115697000D01*
X163576000Y-117348000D02*
X164338000Y-116586000D01*
X150325000Y-114300000D02*
X149225000Y-114300000D01*
X148959000Y-116471000D02*
X148959000Y-117221000D01*
X149225000Y-116205000D02*
X148959000Y-116471000D01*
X149225000Y-114300000D02*
X149225000Y-116205000D01*
X152273000Y-113550000D02*
X151396000Y-113550000D01*
X151396000Y-113550000D02*
X151196000Y-113350000D01*
X150325000Y-115250000D02*
X151069000Y-115250000D01*
X151196000Y-113350000D02*
X150325000Y-113350000D01*
X151384000Y-113538000D02*
X151196000Y-113350000D01*
X151384000Y-114935000D02*
X151384000Y-113538000D01*
X151069000Y-115250000D02*
X151384000Y-114935000D01*
X150325000Y-115908000D02*
X150325000Y-115250000D01*
X150622000Y-116205000D02*
X150325000Y-115908000D01*
X151892000Y-116205000D02*
X150622000Y-116205000D01*
X165070000Y-112425000D02*
X163957000Y-113538000D01*
X165575000Y-112425000D02*
X165070000Y-112425000D01*
D25*
X162085000Y-111760000D02*
X159004000Y-111760000D01*
X160274000Y-117348000D02*
X160909000Y-117348000D01*
X159004000Y-116586000D02*
X160274000Y-117348000D01*
X159004000Y-112395000D02*
X159004000Y-116586000D01*
X159004000Y-111760000D02*
X159004000Y-112395000D01*
X152146000Y-107696000D02*
X152146000Y-107950000D01*
X152146000Y-107696000D02*
X152146000Y-105410000D01*
X152146000Y-105410000D02*
X154686000Y-105410000D01*
X154686000Y-105410000D02*
X154686000Y-106172000D01*
X152031000Y-108065000D02*
X151130000Y-108065000D01*
X152146000Y-107950000D02*
X152031000Y-108065000D01*
D24*
X148125000Y-115250000D02*
X147000000Y-115250000D01*
X158242000Y-114046000D02*
X158242000Y-107823000D01*
X158242000Y-107823000D02*
X158750000Y-107315000D01*
X158750000Y-107315000D02*
X158750000Y-105410000D01*
X147000000Y-115250000D02*
X146685000Y-114935000D01*
X147459000Y-117221000D02*
X147459000Y-116447000D01*
X148125000Y-115781000D02*
X148125000Y-115250000D01*
X147459000Y-116447000D02*
X148125000Y-115781000D01*
D25*
X151130000Y-109105000D02*
X151130000Y-107950000D01*
X151130000Y-107950000D02*
X151130000Y-107938000D01*
D24*
X156685000Y-115570000D02*
X157734000Y-115570000D01*
X157734000Y-115570000D02*
X158242000Y-115062000D01*
X160401000Y-104902000D02*
X160921000Y-104902000D01*
X160020000Y-105283000D02*
X160401000Y-104902000D01*
X160020000Y-108077000D02*
X160020000Y-105283000D01*
D25*
X149055000Y-107315000D02*
X149987000Y-107315000D01*
X150356000Y-106565000D02*
X151130000Y-106565000D01*
X150241000Y-106680000D02*
X150356000Y-106565000D01*
X150241000Y-107061000D02*
X150241000Y-106680000D01*
X149987000Y-107315000D02*
X150241000Y-107061000D01*
X162085000Y-113030000D02*
X160528000Y-113030000D01*
X160528000Y-113030000D02*
X159893000Y-112395000D01*
X146855000Y-105834000D02*
X146855000Y-107315000D01*
X146812000Y-105791000D02*
X146855000Y-105834000D01*
X149055000Y-109855000D02*
X149987000Y-109855000D01*
X150356000Y-110605000D02*
X151130000Y-110605000D01*
X150241000Y-110490000D02*
X150356000Y-110605000D01*
X150241000Y-110109000D02*
X150241000Y-110490000D01*
X149987000Y-109855000D02*
X150241000Y-110109000D01*
X145669000Y-110871000D02*
X145542000Y-110998000D01*
X145669000Y-109982000D02*
X145669000Y-110871000D01*
X145796000Y-109855000D02*
X145669000Y-109982000D01*
X146855000Y-109855000D02*
X145796000Y-109855000D01*
X162085000Y-114300000D02*
X160147000Y-114300000D01*
X160147000Y-114300000D02*
X159893000Y-114046000D01*
X165575000Y-111775000D02*
X164480000Y-111775000D01*
X162941000Y-109220000D02*
X162085000Y-109220000D01*
X163195000Y-109474000D02*
X162941000Y-109220000D01*
X163195000Y-109855000D02*
X163195000Y-109474000D01*
X164211000Y-110871000D02*
X163195000Y-109855000D01*
X164211000Y-111506000D02*
X164211000Y-110871000D01*
X164480000Y-111775000D02*
X164211000Y-111506000D01*
X162085000Y-110490000D02*
X162941000Y-110490000D01*
X166878000Y-111125000D02*
X165575000Y-111125000D01*
X166878000Y-111633000D02*
X166878000Y-111125000D01*
X163703000Y-111252000D02*
X163703000Y-112522000D01*
X162941000Y-110490000D02*
X163703000Y-111252000D01*
X156685000Y-111760000D02*
X153670000Y-111760813D01*
X153670000Y-109982000D02*
X153670000Y-106045000D01*
X153670000Y-111760813D02*
X153670000Y-109982000D01*
X155321000Y-106680000D02*
X156685000Y-106680000D01*
X155194000Y-106807000D02*
X155321000Y-106680000D01*
X155194000Y-108077000D02*
X155194000Y-106807000D01*
X154686000Y-108585000D02*
X155194000Y-108077000D01*
X152908000Y-112649000D02*
X152908000Y-108585000D01*
X155194000Y-114935000D02*
X152908000Y-112649000D01*
D26*
G36*
X166861928Y-112875000D02*
X166869992Y-112976121D01*
X166923106Y-113147634D01*
X166928439Y-113155728D01*
X166887190Y-113247237D01*
X166861928Y-113425000D01*
X166861928Y-114700000D01*
X166864374Y-114730675D01*
X166863147Y-114818557D01*
X166913063Y-115090529D01*
X167014855Y-115347626D01*
X167164646Y-115580056D01*
X167356729Y-115778964D01*
X167583790Y-115936775D01*
X167837178Y-116047478D01*
X168107243Y-116106855D01*
X168383697Y-116112646D01*
X168656012Y-116064630D01*
X168913813Y-115964635D01*
X169015000Y-115900420D01*
X169015000Y-118273000D01*
X163140837Y-118273000D01*
X163225789Y-118216237D01*
X163314237Y-118127789D01*
X163383730Y-118023785D01*
X163431597Y-117908223D01*
X163456000Y-117785542D01*
X163456000Y-117633750D01*
X163297250Y-117475000D01*
X162548000Y-117475000D01*
X162548000Y-117495000D01*
X162294000Y-117495000D01*
X162294000Y-117475000D01*
X162274000Y-117475000D01*
X162274000Y-117221000D01*
X162294000Y-117221000D01*
X162294000Y-117201000D01*
X162548000Y-117201000D01*
X162548000Y-117221000D01*
X163297250Y-117221000D01*
X163456000Y-117062250D01*
X163456000Y-116910458D01*
X163431597Y-116787777D01*
X163383730Y-116672215D01*
X163314237Y-116568211D01*
X163225789Y-116479763D01*
X163145592Y-116426177D01*
X163239789Y-116363237D01*
X163328237Y-116274789D01*
X163397730Y-116170785D01*
X163445597Y-116055223D01*
X163470000Y-115932542D01*
X163470000Y-115855750D01*
X163311250Y-115697000D01*
X162212000Y-115697000D01*
X162212000Y-115717000D01*
X161958000Y-115717000D01*
X161958000Y-115697000D01*
X160858750Y-115697000D01*
X160700000Y-115855750D01*
X160700000Y-115932542D01*
X160724403Y-116055223D01*
X160772270Y-116170785D01*
X160841763Y-116274789D01*
X160901902Y-116334928D01*
X160521000Y-116334928D01*
X160419879Y-116342992D01*
X160248366Y-116396106D01*
X160208485Y-116422386D01*
X159764000Y-116155695D01*
X159764000Y-114975011D01*
X159781757Y-114978915D01*
X159813095Y-114979571D01*
X159847604Y-114998543D01*
X159851416Y-114999752D01*
X159854935Y-115001639D01*
X159922031Y-115022152D01*
X159988987Y-115043392D01*
X159992959Y-115043838D01*
X159996781Y-115045006D01*
X160066605Y-115052098D01*
X160136389Y-115059926D01*
X160144204Y-115059981D01*
X160144347Y-115059995D01*
X160144480Y-115059982D01*
X160147000Y-115060000D01*
X160734666Y-115060000D01*
X160724403Y-115084777D01*
X160700000Y-115207458D01*
X160700000Y-115284250D01*
X160858750Y-115443000D01*
X161958000Y-115443000D01*
X161958000Y-115423000D01*
X162212000Y-115423000D01*
X162212000Y-115443000D01*
X163311250Y-115443000D01*
X163470000Y-115284250D01*
X163470000Y-115207458D01*
X163445597Y-115084777D01*
X163397730Y-114969215D01*
X163376101Y-114936845D01*
X163447810Y-114777763D01*
X163473072Y-114600000D01*
X163473072Y-114456091D01*
X163635620Y-114527106D01*
X163833859Y-114570692D01*
X164036788Y-114574943D01*
X164236679Y-114539697D01*
X164425916Y-114466296D01*
X164562333Y-114379723D01*
X164582768Y-114411433D01*
X164754417Y-114589181D01*
X164957322Y-114730204D01*
X165183755Y-114829130D01*
X165425089Y-114882191D01*
X165672134Y-114887365D01*
X165915479Y-114844457D01*
X166145855Y-114755100D01*
X166354487Y-114622698D01*
X166533429Y-114452294D01*
X166675865Y-114250378D01*
X166776369Y-114024642D01*
X166831113Y-113783684D01*
X166835054Y-113501451D01*
X166787059Y-113259058D01*
X166706408Y-113063384D01*
X166789025Y-112966450D01*
X166861928Y-112804720D01*
X166861928Y-112875000D01*
X166861928Y-112875000D01*
G37*
X166861928Y-112875000D02*
X166869992Y-112976121D01*
X166923106Y-113147634D01*
X166928439Y-113155728D01*
X166887190Y-113247237D01*
X166861928Y-113425000D01*
X166861928Y-114700000D01*
X166864374Y-114730675D01*
X166863147Y-114818557D01*
X166913063Y-115090529D01*
X167014855Y-115347626D01*
X167164646Y-115580056D01*
X167356729Y-115778964D01*
X167583790Y-115936775D01*
X167837178Y-116047478D01*
X168107243Y-116106855D01*
X168383697Y-116112646D01*
X168656012Y-116064630D01*
X168913813Y-115964635D01*
X169015000Y-115900420D01*
X169015000Y-118273000D01*
X163140837Y-118273000D01*
X163225789Y-118216237D01*
X163314237Y-118127789D01*
X163383730Y-118023785D01*
X163431597Y-117908223D01*
X163456000Y-117785542D01*
X163456000Y-117633750D01*
X163297250Y-117475000D01*
X162548000Y-117475000D01*
X162548000Y-117495000D01*
X162294000Y-117495000D01*
X162294000Y-117475000D01*
X162274000Y-117475000D01*
X162274000Y-117221000D01*
X162294000Y-117221000D01*
X162294000Y-117201000D01*
X162548000Y-117201000D01*
X162548000Y-117221000D01*
X163297250Y-117221000D01*
X163456000Y-117062250D01*
X163456000Y-116910458D01*
X163431597Y-116787777D01*
X163383730Y-116672215D01*
X163314237Y-116568211D01*
X163225789Y-116479763D01*
X163145592Y-116426177D01*
X163239789Y-116363237D01*
X163328237Y-116274789D01*
X163397730Y-116170785D01*
X163445597Y-116055223D01*
X163470000Y-115932542D01*
X163470000Y-115855750D01*
X163311250Y-115697000D01*
X162212000Y-115697000D01*
X162212000Y-115717000D01*
X161958000Y-115717000D01*
X161958000Y-115697000D01*
X160858750Y-115697000D01*
X160700000Y-115855750D01*
X160700000Y-115932542D01*
X160724403Y-116055223D01*
X160772270Y-116170785D01*
X160841763Y-116274789D01*
X160901902Y-116334928D01*
X160521000Y-116334928D01*
X160419879Y-116342992D01*
X160248366Y-116396106D01*
X160208485Y-116422386D01*
X159764000Y-116155695D01*
X159764000Y-114975011D01*
X159781757Y-114978915D01*
X159813095Y-114979571D01*
X159847604Y-114998543D01*
X159851416Y-114999752D01*
X159854935Y-115001639D01*
X159922031Y-115022152D01*
X159988987Y-115043392D01*
X159992959Y-115043838D01*
X159996781Y-115045006D01*
X160066605Y-115052098D01*
X160136389Y-115059926D01*
X160144204Y-115059981D01*
X160144347Y-115059995D01*
X160144480Y-115059982D01*
X160147000Y-115060000D01*
X160734666Y-115060000D01*
X160724403Y-115084777D01*
X160700000Y-115207458D01*
X160700000Y-115284250D01*
X160858750Y-115443000D01*
X161958000Y-115443000D01*
X161958000Y-115423000D01*
X162212000Y-115423000D01*
X162212000Y-115443000D01*
X163311250Y-115443000D01*
X163470000Y-115284250D01*
X163470000Y-115207458D01*
X163445597Y-115084777D01*
X163397730Y-114969215D01*
X163376101Y-114936845D01*
X163447810Y-114777763D01*
X163473072Y-114600000D01*
X163473072Y-114456091D01*
X163635620Y-114527106D01*
X163833859Y-114570692D01*
X164036788Y-114574943D01*
X164236679Y-114539697D01*
X164425916Y-114466296D01*
X164562333Y-114379723D01*
X164582768Y-114411433D01*
X164754417Y-114589181D01*
X164957322Y-114730204D01*
X165183755Y-114829130D01*
X165425089Y-114882191D01*
X165672134Y-114887365D01*
X165915479Y-114844457D01*
X166145855Y-114755100D01*
X166354487Y-114622698D01*
X166533429Y-114452294D01*
X166675865Y-114250378D01*
X166776369Y-114024642D01*
X166831113Y-113783684D01*
X166835054Y-113501451D01*
X166787059Y-113259058D01*
X166706408Y-113063384D01*
X166789025Y-112966450D01*
X166861928Y-112804720D01*
X166861928Y-112875000D01*
G36*
X160098441Y-104048900D02*
X159985593Y-104181305D01*
X159946226Y-104201711D01*
X159942796Y-104204449D01*
X159938918Y-104206511D01*
X159879131Y-104255272D01*
X159818866Y-104303380D01*
X159812761Y-104309401D01*
X159812630Y-104309508D01*
X159812530Y-104309629D01*
X159810566Y-104311566D01*
X159463024Y-104659108D01*
X159412926Y-104608660D01*
X159244653Y-104495158D01*
X159057539Y-104416503D01*
X158858710Y-104375689D01*
X158655741Y-104374272D01*
X158456363Y-104412306D01*
X158268168Y-104488341D01*
X158098327Y-104599482D01*
X157953308Y-104741496D01*
X157838634Y-104908972D01*
X157758674Y-105095533D01*
X157716473Y-105294071D01*
X157713639Y-105497026D01*
X157750280Y-105696665D01*
X157823188Y-105880810D01*
X157776450Y-105840975D01*
X157612763Y-105767190D01*
X157435000Y-105741928D01*
X155935000Y-105741928D01*
X155833879Y-105749992D01*
X155662366Y-105803106D01*
X155570307Y-105863769D01*
X155515550Y-105730920D01*
X155446000Y-105626238D01*
X155446000Y-105410000D01*
X155439015Y-105338758D01*
X155432538Y-105267590D01*
X155431786Y-105265035D01*
X155431526Y-105262382D01*
X155410856Y-105193919D01*
X155390660Y-105125299D01*
X155389425Y-105122936D01*
X155388655Y-105120387D01*
X155355093Y-105057265D01*
X155321941Y-104993852D01*
X155320271Y-104991775D01*
X155319020Y-104989422D01*
X155273790Y-104933965D01*
X155228999Y-104878256D01*
X155226960Y-104876545D01*
X155225274Y-104874478D01*
X155170102Y-104828836D01*
X155115375Y-104782914D01*
X155113043Y-104781632D01*
X155110987Y-104779931D01*
X155048031Y-104745891D01*
X154985396Y-104711457D01*
X154982855Y-104710651D01*
X154980512Y-104709384D01*
X154912203Y-104688239D01*
X154844013Y-104666608D01*
X154841364Y-104666311D01*
X154838819Y-104665523D01*
X154767728Y-104658051D01*
X154696611Y-104650074D01*
X154691489Y-104650038D01*
X154691306Y-104650019D01*
X154691122Y-104650036D01*
X154686000Y-104650000D01*
X152146000Y-104650000D01*
X152074758Y-104656985D01*
X152003590Y-104663462D01*
X152001035Y-104664214D01*
X151998382Y-104664474D01*
X151929919Y-104685144D01*
X151861299Y-104705340D01*
X151858936Y-104706575D01*
X151856387Y-104707345D01*
X151793265Y-104740907D01*
X151729852Y-104774059D01*
X151727775Y-104775729D01*
X151725422Y-104776980D01*
X151669965Y-104822210D01*
X151614256Y-104867001D01*
X151612545Y-104869040D01*
X151610478Y-104870726D01*
X151564836Y-104925898D01*
X151518914Y-104980625D01*
X151517632Y-104982957D01*
X151515931Y-104985013D01*
X151481891Y-105047969D01*
X151447457Y-105110604D01*
X151446651Y-105113145D01*
X151445384Y-105115488D01*
X151424239Y-105183797D01*
X151402608Y-105251987D01*
X151402311Y-105254636D01*
X151401523Y-105257181D01*
X151394051Y-105328272D01*
X151386074Y-105399389D01*
X151386038Y-105404511D01*
X151386019Y-105404694D01*
X151386036Y-105404878D01*
X151386000Y-105410000D01*
X151386000Y-105676928D01*
X150680000Y-105676928D01*
X150578879Y-105684992D01*
X150407366Y-105738106D01*
X150297084Y-105810777D01*
X150286115Y-105811852D01*
X150216198Y-105817969D01*
X150212360Y-105819084D01*
X150208382Y-105819474D01*
X150141200Y-105839757D01*
X150073761Y-105859350D01*
X150070210Y-105861191D01*
X150066387Y-105862345D01*
X150004426Y-105895290D01*
X149942075Y-105927610D01*
X149938952Y-105930103D01*
X149935422Y-105931980D01*
X149880989Y-105976375D01*
X149826155Y-106020148D01*
X149820596Y-106025630D01*
X149820478Y-106025726D01*
X149820388Y-106025835D01*
X149818599Y-106027599D01*
X149755052Y-106091146D01*
X149655000Y-106076928D01*
X148455000Y-106076928D01*
X148353879Y-106084992D01*
X148182366Y-106138106D01*
X148032441Y-106236900D01*
X147955775Y-106326852D01*
X147933100Y-106292441D01*
X147796450Y-106175975D01*
X147686245Y-106126298D01*
X147703492Y-106087560D01*
X147744116Y-105908754D01*
X147747040Y-105699319D01*
X147711425Y-105519448D01*
X147641550Y-105349920D01*
X147540079Y-105197193D01*
X147410875Y-105067084D01*
X147258860Y-104964549D01*
X147089825Y-104893493D01*
X146910207Y-104856623D01*
X146726849Y-104855343D01*
X146546733Y-104889701D01*
X146376722Y-104958390D01*
X146223291Y-105058793D01*
X146092283Y-105187086D01*
X145988689Y-105338381D01*
X145916454Y-105506916D01*
X145878331Y-105686272D01*
X145875771Y-105869617D01*
X145908872Y-106049968D01*
X145951755Y-106158278D01*
X145832441Y-106236900D01*
X145715975Y-106373550D01*
X145642190Y-106537237D01*
X145616928Y-106715000D01*
X145616928Y-107915000D01*
X145624992Y-108016121D01*
X145678106Y-108187634D01*
X145776900Y-108337559D01*
X145913550Y-108454025D01*
X146077237Y-108527810D01*
X146255000Y-108553072D01*
X147455000Y-108553072D01*
X147556121Y-108545008D01*
X147727634Y-108491894D01*
X147877559Y-108393100D01*
X147954225Y-108303148D01*
X147976900Y-108337559D01*
X148113550Y-108454025D01*
X148277237Y-108527810D01*
X148455000Y-108553072D01*
X149655000Y-108553072D01*
X149756121Y-108545008D01*
X149927634Y-108491894D01*
X150049624Y-108411508D01*
X150049992Y-108416121D01*
X150103106Y-108587634D01*
X150105763Y-108591666D01*
X150067190Y-108677237D01*
X150054637Y-108765568D01*
X149996450Y-108715975D01*
X149832763Y-108642190D01*
X149655000Y-108616928D01*
X148455000Y-108616928D01*
X148353879Y-108624992D01*
X148182366Y-108678106D01*
X148032441Y-108776900D01*
X147955775Y-108866852D01*
X147933100Y-108832441D01*
X147796450Y-108715975D01*
X147632763Y-108642190D01*
X147455000Y-108616928D01*
X146255000Y-108616928D01*
X146153879Y-108624992D01*
X145982366Y-108678106D01*
X145832441Y-108776900D01*
X145715975Y-108913550D01*
X145642190Y-109077237D01*
X145637126Y-109112872D01*
X145581179Y-109129764D01*
X145513760Y-109149351D01*
X145510212Y-109151190D01*
X145506387Y-109152345D01*
X145444429Y-109185288D01*
X145382074Y-109217610D01*
X145378949Y-109220105D01*
X145375422Y-109221980D01*
X145321035Y-109266337D01*
X145266154Y-109310148D01*
X145260594Y-109315631D01*
X145260478Y-109315726D01*
X145260389Y-109315834D01*
X145258599Y-109317599D01*
X145131599Y-109444599D01*
X145087032Y-109498855D01*
X145041914Y-109552625D01*
X145039989Y-109556126D01*
X145037452Y-109559215D01*
X145004287Y-109621067D01*
X144970457Y-109682604D01*
X144969248Y-109686416D01*
X144967361Y-109689935D01*
X144946848Y-109757031D01*
X144925608Y-109823987D01*
X144925162Y-109827959D01*
X144923994Y-109831781D01*
X144916897Y-109901649D01*
X144909074Y-109971389D01*
X144909020Y-109979194D01*
X144909004Y-109979347D01*
X144909018Y-109979490D01*
X144909000Y-109982000D01*
X144909000Y-110309166D01*
X144822283Y-110394086D01*
X144718689Y-110545381D01*
X144646454Y-110713916D01*
X144608331Y-110893272D01*
X144605771Y-111076617D01*
X144638872Y-111256968D01*
X144706372Y-111427454D01*
X144805701Y-111581583D01*
X144933076Y-111713484D01*
X145083644Y-111818131D01*
X145251671Y-111891540D01*
X145430757Y-111930915D01*
X145614079Y-111934755D01*
X145794657Y-111902914D01*
X145965610Y-111836606D01*
X146120429Y-111738355D01*
X146253215Y-111611904D01*
X146358911Y-111462070D01*
X146433492Y-111294560D01*
X146474116Y-111115754D01*
X146474433Y-111093072D01*
X147455000Y-111093072D01*
X147556121Y-111085008D01*
X147727634Y-111031894D01*
X147877559Y-110933100D01*
X147954225Y-110843148D01*
X147976900Y-110877559D01*
X148113550Y-110994025D01*
X148277237Y-111067810D01*
X148455000Y-111093072D01*
X149655000Y-111093072D01*
X149756121Y-111085008D01*
X149760004Y-111083806D01*
X149818599Y-111142401D01*
X149872833Y-111186949D01*
X149926625Y-111232086D01*
X149930129Y-111234012D01*
X149933216Y-111236548D01*
X149995062Y-111269710D01*
X150056604Y-111303543D01*
X150060414Y-111304752D01*
X150063936Y-111306640D01*
X150131104Y-111327176D01*
X150197987Y-111348392D01*
X150201954Y-111348837D01*
X150205781Y-111350007D01*
X150275699Y-111357109D01*
X150298197Y-111359633D01*
X150338550Y-111394025D01*
X150502237Y-111467810D01*
X150680000Y-111493072D01*
X151580000Y-111493072D01*
X151681121Y-111485008D01*
X151852634Y-111431894D01*
X152002559Y-111333100D01*
X152119025Y-111196450D01*
X152148000Y-111132171D01*
X152148000Y-112511928D01*
X151898000Y-112511928D01*
X151796879Y-112519992D01*
X151625366Y-112573106D01*
X151571900Y-112608338D01*
X151524941Y-112582522D01*
X151520758Y-112581195D01*
X151516886Y-112579119D01*
X151443107Y-112556563D01*
X151369606Y-112533247D01*
X151365242Y-112532758D01*
X151361044Y-112531474D01*
X151284284Y-112523676D01*
X151234077Y-112518044D01*
X151196450Y-112485975D01*
X151032763Y-112412190D01*
X150855000Y-112386928D01*
X149795000Y-112386928D01*
X149693879Y-112394992D01*
X149522366Y-112448106D01*
X149372441Y-112546900D01*
X149255975Y-112683550D01*
X149227774Y-112746113D01*
X149133100Y-112602441D01*
X148996450Y-112485975D01*
X148832763Y-112412190D01*
X148655000Y-112386928D01*
X147595000Y-112386928D01*
X147493879Y-112394992D01*
X147322366Y-112448106D01*
X147172441Y-112546900D01*
X147055975Y-112683550D01*
X146982190Y-112847237D01*
X146956928Y-113025000D01*
X146956928Y-113675000D01*
X146964992Y-113776121D01*
X147018106Y-113947634D01*
X147022313Y-113954019D01*
X146992539Y-113941503D01*
X146793710Y-113900689D01*
X146590741Y-113899272D01*
X146391363Y-113937306D01*
X146203168Y-114013341D01*
X146033327Y-114124482D01*
X145888308Y-114266496D01*
X145773634Y-114433972D01*
X145693674Y-114620533D01*
X145651473Y-114819071D01*
X145648639Y-115022026D01*
X145685280Y-115221665D01*
X145760000Y-115410386D01*
X145869953Y-115580999D01*
X146010950Y-115727006D01*
X146177622Y-115842846D01*
X146363620Y-115924106D01*
X146561859Y-115967692D01*
X146580651Y-115968086D01*
X146603506Y-115980341D01*
X146671059Y-116017478D01*
X146675240Y-116018804D01*
X146679113Y-116020881D01*
X146735329Y-116038067D01*
X146728648Y-116050526D01*
X146691522Y-116118059D01*
X146690195Y-116122242D01*
X146688119Y-116126114D01*
X146665563Y-116199893D01*
X146642247Y-116273394D01*
X146641758Y-116277758D01*
X146640474Y-116281956D01*
X146632676Y-116358716D01*
X146630919Y-116374379D01*
X146519975Y-116504550D01*
X146446190Y-116668237D01*
X146420928Y-116846000D01*
X146420928Y-117596000D01*
X146428992Y-117697121D01*
X146482106Y-117868634D01*
X146580900Y-118018559D01*
X146717550Y-118135025D01*
X146881237Y-118208810D01*
X147059000Y-118234072D01*
X147859000Y-118234072D01*
X147960121Y-118226008D01*
X148131634Y-118172894D01*
X148206037Y-118123866D01*
X148258215Y-118158730D01*
X148373777Y-118206597D01*
X148496458Y-118231000D01*
X148673250Y-118231000D01*
X148832000Y-118072250D01*
X148832000Y-117348000D01*
X149086000Y-117348000D01*
X149086000Y-118072250D01*
X149244750Y-118231000D01*
X149421542Y-118231000D01*
X149544223Y-118206597D01*
X149659785Y-118158730D01*
X149763789Y-118089237D01*
X149852237Y-118000789D01*
X149921730Y-117896785D01*
X149969597Y-117781223D01*
X149994000Y-117658542D01*
X149994000Y-117506750D01*
X149835250Y-117348000D01*
X149086000Y-117348000D01*
X148832000Y-117348000D01*
X148812000Y-117348000D01*
X148812000Y-117094000D01*
X148832000Y-117094000D01*
X148832000Y-116369750D01*
X148768813Y-116306563D01*
X148813970Y-116252747D01*
X148816085Y-116248900D01*
X148818872Y-116245507D01*
X148855341Y-116177494D01*
X148857469Y-116173623D01*
X148927634Y-116151894D01*
X149077559Y-116053100D01*
X149194025Y-115916450D01*
X149222226Y-115853887D01*
X149316900Y-115997559D01*
X149453550Y-116114025D01*
X149529416Y-116148223D01*
X149549715Y-116218092D01*
X149551734Y-116221986D01*
X149553004Y-116226194D01*
X149561764Y-116242669D01*
X149544223Y-116235403D01*
X149421542Y-116211000D01*
X149244750Y-116211000D01*
X149086000Y-116369750D01*
X149086000Y-117094000D01*
X149835250Y-117094000D01*
X149994000Y-116935250D01*
X149994000Y-116783458D01*
X149987646Y-116751514D01*
X150031566Y-116795434D01*
X150091155Y-116844382D01*
X150150253Y-116893970D01*
X150154100Y-116896085D01*
X150157493Y-116898872D01*
X150225471Y-116935321D01*
X150293059Y-116972478D01*
X150297244Y-116973806D01*
X150301113Y-116975880D01*
X150374861Y-116998427D01*
X150448394Y-117021753D01*
X150452758Y-117022243D01*
X150456956Y-117023526D01*
X150533671Y-117031319D01*
X150610342Y-117039919D01*
X150618924Y-117039979D01*
X150619085Y-117039995D01*
X150619235Y-117039981D01*
X150622000Y-117040000D01*
X151279810Y-117040000D01*
X151384622Y-117112846D01*
X151570620Y-117194106D01*
X151768859Y-117237692D01*
X151971788Y-117241943D01*
X152171679Y-117206697D01*
X152360916Y-117133296D01*
X152532293Y-117024537D01*
X152679281Y-116884563D01*
X152796282Y-116718703D01*
X152878839Y-116533278D01*
X152923807Y-116335348D01*
X152927044Y-116103513D01*
X152912079Y-116027934D01*
X152948785Y-116012730D01*
X153052789Y-115943237D01*
X153141237Y-115854789D01*
X153210730Y-115750785D01*
X153258597Y-115635223D01*
X153283000Y-115512542D01*
X153283000Y-115335750D01*
X153124250Y-115177000D01*
X152400000Y-115177000D01*
X152400000Y-115197000D01*
X152172884Y-115197000D01*
X152177441Y-115182093D01*
X152200753Y-115108606D01*
X152201242Y-115104242D01*
X152202526Y-115100044D01*
X152210319Y-115023329D01*
X152218919Y-114946658D01*
X152218979Y-114938076D01*
X152218995Y-114937915D01*
X152218981Y-114937765D01*
X152219000Y-114935000D01*
X152219000Y-114903000D01*
X152400000Y-114903000D01*
X152400000Y-114923000D01*
X153124250Y-114923000D01*
X153283000Y-114764250D01*
X153283000Y-114587458D01*
X153258597Y-114464777D01*
X153210730Y-114349215D01*
X153178677Y-114301244D01*
X153187025Y-114291450D01*
X153260810Y-114127763D01*
X153267175Y-114082977D01*
X154271249Y-115087051D01*
X154290872Y-115193968D01*
X154358372Y-115364454D01*
X154457701Y-115518583D01*
X154585076Y-115650484D01*
X154735644Y-115755131D01*
X154903671Y-115828540D01*
X155082757Y-115867915D01*
X155266079Y-115871755D01*
X155296928Y-115866315D01*
X155296928Y-115870000D01*
X155304992Y-115971121D01*
X155358106Y-116142634D01*
X155456900Y-116292559D01*
X155593550Y-116409025D01*
X155757237Y-116482810D01*
X155935000Y-116508072D01*
X157435000Y-116508072D01*
X157536121Y-116500008D01*
X157707634Y-116446894D01*
X157777715Y-116400714D01*
X157810747Y-116397475D01*
X157887600Y-116390751D01*
X157891814Y-116389527D01*
X157896186Y-116389098D01*
X157970081Y-116366788D01*
X158044092Y-116345285D01*
X158047986Y-116343266D01*
X158052194Y-116341996D01*
X158120311Y-116305777D01*
X158188774Y-116270290D01*
X158192207Y-116267549D01*
X158196082Y-116265489D01*
X158244000Y-116226408D01*
X158244000Y-116586000D01*
X158245452Y-116600806D01*
X158244579Y-116615655D01*
X158252677Y-116674495D01*
X158258474Y-116733618D01*
X158262774Y-116747860D01*
X158264802Y-116762596D01*
X158284175Y-116818745D01*
X158301345Y-116875613D01*
X158308329Y-116888749D01*
X158313181Y-116902810D01*
X158343091Y-116954126D01*
X158370980Y-117006578D01*
X158380382Y-117018106D01*
X158387873Y-117030958D01*
X158427179Y-117075484D01*
X158464726Y-117121522D01*
X158476191Y-117131007D01*
X158486033Y-117142156D01*
X158533234Y-117178197D01*
X158579013Y-117216069D01*
X158592100Y-117223145D01*
X158603922Y-117232172D01*
X158612983Y-117237695D01*
X159882983Y-117999695D01*
X159929498Y-118021746D01*
X159974604Y-118046543D01*
X159978459Y-118047766D01*
X160042900Y-118145559D01*
X160179550Y-118262025D01*
X160203897Y-118273000D01*
X142783000Y-118273000D01*
X142783000Y-103964000D01*
X160227281Y-103964000D01*
X160098441Y-104048900D01*
X160098441Y-104048900D01*
G37*
X160098441Y-104048900D02*
X159985593Y-104181305D01*
X159946226Y-104201711D01*
X159942796Y-104204449D01*
X159938918Y-104206511D01*
X159879131Y-104255272D01*
X159818866Y-104303380D01*
X159812761Y-104309401D01*
X159812630Y-104309508D01*
X159812530Y-104309629D01*
X159810566Y-104311566D01*
X159463024Y-104659108D01*
X159412926Y-104608660D01*
X159244653Y-104495158D01*
X159057539Y-104416503D01*
X158858710Y-104375689D01*
X158655741Y-104374272D01*
X158456363Y-104412306D01*
X158268168Y-104488341D01*
X158098327Y-104599482D01*
X157953308Y-104741496D01*
X157838634Y-104908972D01*
X157758674Y-105095533D01*
X157716473Y-105294071D01*
X157713639Y-105497026D01*
X157750280Y-105696665D01*
X157823188Y-105880810D01*
X157776450Y-105840975D01*
X157612763Y-105767190D01*
X157435000Y-105741928D01*
X155935000Y-105741928D01*
X155833879Y-105749992D01*
X155662366Y-105803106D01*
X155570307Y-105863769D01*
X155515550Y-105730920D01*
X155446000Y-105626238D01*
X155446000Y-105410000D01*
X155439015Y-105338758D01*
X155432538Y-105267590D01*
X155431786Y-105265035D01*
X155431526Y-105262382D01*
X155410856Y-105193919D01*
X155390660Y-105125299D01*
X155389425Y-105122936D01*
X155388655Y-105120387D01*
X155355093Y-105057265D01*
X155321941Y-104993852D01*
X155320271Y-104991775D01*
X155319020Y-104989422D01*
X155273790Y-104933965D01*
X155228999Y-104878256D01*
X155226960Y-104876545D01*
X155225274Y-104874478D01*
X155170102Y-104828836D01*
X155115375Y-104782914D01*
X155113043Y-104781632D01*
X155110987Y-104779931D01*
X155048031Y-104745891D01*
X154985396Y-104711457D01*
X154982855Y-104710651D01*
X154980512Y-104709384D01*
X154912203Y-104688239D01*
X154844013Y-104666608D01*
X154841364Y-104666311D01*
X154838819Y-104665523D01*
X154767728Y-104658051D01*
X154696611Y-104650074D01*
X154691489Y-104650038D01*
X154691306Y-104650019D01*
X154691122Y-104650036D01*
X154686000Y-104650000D01*
X152146000Y-104650000D01*
X152074758Y-104656985D01*
X152003590Y-104663462D01*
X152001035Y-104664214D01*
X151998382Y-104664474D01*
X151929919Y-104685144D01*
X151861299Y-104705340D01*
X151858936Y-104706575D01*
X151856387Y-104707345D01*
X151793265Y-104740907D01*
X151729852Y-104774059D01*
X151727775Y-104775729D01*
X151725422Y-104776980D01*
X151669965Y-104822210D01*
X151614256Y-104867001D01*
X151612545Y-104869040D01*
X151610478Y-104870726D01*
X151564836Y-104925898D01*
X151518914Y-104980625D01*
X151517632Y-104982957D01*
X151515931Y-104985013D01*
X151481891Y-105047969D01*
X151447457Y-105110604D01*
X151446651Y-105113145D01*
X151445384Y-105115488D01*
X151424239Y-105183797D01*
X151402608Y-105251987D01*
X151402311Y-105254636D01*
X151401523Y-105257181D01*
X151394051Y-105328272D01*
X151386074Y-105399389D01*
X151386038Y-105404511D01*
X151386019Y-105404694D01*
X151386036Y-105404878D01*
X151386000Y-105410000D01*
X151386000Y-105676928D01*
X150680000Y-105676928D01*
X150578879Y-105684992D01*
X150407366Y-105738106D01*
X150297084Y-105810777D01*
X150286115Y-105811852D01*
X150216198Y-105817969D01*
X150212360Y-105819084D01*
X150208382Y-105819474D01*
X150141200Y-105839757D01*
X150073761Y-105859350D01*
X150070210Y-105861191D01*
X150066387Y-105862345D01*
X150004426Y-105895290D01*
X149942075Y-105927610D01*
X149938952Y-105930103D01*
X149935422Y-105931980D01*
X149880989Y-105976375D01*
X149826155Y-106020148D01*
X149820596Y-106025630D01*
X149820478Y-106025726D01*
X149820388Y-106025835D01*
X149818599Y-106027599D01*
X149755052Y-106091146D01*
X149655000Y-106076928D01*
X148455000Y-106076928D01*
X148353879Y-106084992D01*
X148182366Y-106138106D01*
X148032441Y-106236900D01*
X147955775Y-106326852D01*
X147933100Y-106292441D01*
X147796450Y-106175975D01*
X147686245Y-106126298D01*
X147703492Y-106087560D01*
X147744116Y-105908754D01*
X147747040Y-105699319D01*
X147711425Y-105519448D01*
X147641550Y-105349920D01*
X147540079Y-105197193D01*
X147410875Y-105067084D01*
X147258860Y-104964549D01*
X147089825Y-104893493D01*
X146910207Y-104856623D01*
X146726849Y-104855343D01*
X146546733Y-104889701D01*
X146376722Y-104958390D01*
X146223291Y-105058793D01*
X146092283Y-105187086D01*
X145988689Y-105338381D01*
X145916454Y-105506916D01*
X145878331Y-105686272D01*
X145875771Y-105869617D01*
X145908872Y-106049968D01*
X145951755Y-106158278D01*
X145832441Y-106236900D01*
X145715975Y-106373550D01*
X145642190Y-106537237D01*
X145616928Y-106715000D01*
X145616928Y-107915000D01*
X145624992Y-108016121D01*
X145678106Y-108187634D01*
X145776900Y-108337559D01*
X145913550Y-108454025D01*
X146077237Y-108527810D01*
X146255000Y-108553072D01*
X147455000Y-108553072D01*
X147556121Y-108545008D01*
X147727634Y-108491894D01*
X147877559Y-108393100D01*
X147954225Y-108303148D01*
X147976900Y-108337559D01*
X148113550Y-108454025D01*
X148277237Y-108527810D01*
X148455000Y-108553072D01*
X149655000Y-108553072D01*
X149756121Y-108545008D01*
X149927634Y-108491894D01*
X150049624Y-108411508D01*
X150049992Y-108416121D01*
X150103106Y-108587634D01*
X150105763Y-108591666D01*
X150067190Y-108677237D01*
X150054637Y-108765568D01*
X149996450Y-108715975D01*
X149832763Y-108642190D01*
X149655000Y-108616928D01*
X148455000Y-108616928D01*
X148353879Y-108624992D01*
X148182366Y-108678106D01*
X148032441Y-108776900D01*
X147955775Y-108866852D01*
X147933100Y-108832441D01*
X147796450Y-108715975D01*
X147632763Y-108642190D01*
X147455000Y-108616928D01*
X146255000Y-108616928D01*
X146153879Y-108624992D01*
X145982366Y-108678106D01*
X145832441Y-108776900D01*
X145715975Y-108913550D01*
X145642190Y-109077237D01*
X145637126Y-109112872D01*
X145581179Y-109129764D01*
X145513760Y-109149351D01*
X145510212Y-109151190D01*
X145506387Y-109152345D01*
X145444429Y-109185288D01*
X145382074Y-109217610D01*
X145378949Y-109220105D01*
X145375422Y-109221980D01*
X145321035Y-109266337D01*
X145266154Y-109310148D01*
X145260594Y-109315631D01*
X145260478Y-109315726D01*
X145260389Y-109315834D01*
X145258599Y-109317599D01*
X145131599Y-109444599D01*
X145087032Y-109498855D01*
X145041914Y-109552625D01*
X145039989Y-109556126D01*
X145037452Y-109559215D01*
X145004287Y-109621067D01*
X144970457Y-109682604D01*
X144969248Y-109686416D01*
X144967361Y-109689935D01*
X144946848Y-109757031D01*
X144925608Y-109823987D01*
X144925162Y-109827959D01*
X144923994Y-109831781D01*
X144916897Y-109901649D01*
X144909074Y-109971389D01*
X144909020Y-109979194D01*
X144909004Y-109979347D01*
X144909018Y-109979490D01*
X144909000Y-109982000D01*
X144909000Y-110309166D01*
X144822283Y-110394086D01*
X144718689Y-110545381D01*
X144646454Y-110713916D01*
X144608331Y-110893272D01*
X144605771Y-111076617D01*
X144638872Y-111256968D01*
X144706372Y-111427454D01*
X144805701Y-111581583D01*
X144933076Y-111713484D01*
X145083644Y-111818131D01*
X145251671Y-111891540D01*
X145430757Y-111930915D01*
X145614079Y-111934755D01*
X145794657Y-111902914D01*
X145965610Y-111836606D01*
X146120429Y-111738355D01*
X146253215Y-111611904D01*
X146358911Y-111462070D01*
X146433492Y-111294560D01*
X146474116Y-111115754D01*
X146474433Y-111093072D01*
X147455000Y-111093072D01*
X147556121Y-111085008D01*
X147727634Y-111031894D01*
X147877559Y-110933100D01*
X147954225Y-110843148D01*
X147976900Y-110877559D01*
X148113550Y-110994025D01*
X148277237Y-111067810D01*
X148455000Y-111093072D01*
X149655000Y-111093072D01*
X149756121Y-111085008D01*
X149760004Y-111083806D01*
X149818599Y-111142401D01*
X149872833Y-111186949D01*
X149926625Y-111232086D01*
X149930129Y-111234012D01*
X149933216Y-111236548D01*
X149995062Y-111269710D01*
X150056604Y-111303543D01*
X150060414Y-111304752D01*
X150063936Y-111306640D01*
X150131104Y-111327176D01*
X150197987Y-111348392D01*
X150201954Y-111348837D01*
X150205781Y-111350007D01*
X150275699Y-111357109D01*
X150298197Y-111359633D01*
X150338550Y-111394025D01*
X150502237Y-111467810D01*
X150680000Y-111493072D01*
X151580000Y-111493072D01*
X151681121Y-111485008D01*
X151852634Y-111431894D01*
X152002559Y-111333100D01*
X152119025Y-111196450D01*
X152148000Y-111132171D01*
X152148000Y-112511928D01*
X151898000Y-112511928D01*
X151796879Y-112519992D01*
X151625366Y-112573106D01*
X151571900Y-112608338D01*
X151524941Y-112582522D01*
X151520758Y-112581195D01*
X151516886Y-112579119D01*
X151443107Y-112556563D01*
X151369606Y-112533247D01*
X151365242Y-112532758D01*
X151361044Y-112531474D01*
X151284284Y-112523676D01*
X151234077Y-112518044D01*
X151196450Y-112485975D01*
X151032763Y-112412190D01*
X150855000Y-112386928D01*
X149795000Y-112386928D01*
X149693879Y-112394992D01*
X149522366Y-112448106D01*
X149372441Y-112546900D01*
X149255975Y-112683550D01*
X149227774Y-112746113D01*
X149133100Y-112602441D01*
X148996450Y-112485975D01*
X148832763Y-112412190D01*
X148655000Y-112386928D01*
X147595000Y-112386928D01*
X147493879Y-112394992D01*
X147322366Y-112448106D01*
X147172441Y-112546900D01*
X147055975Y-112683550D01*
X146982190Y-112847237D01*
X146956928Y-113025000D01*
X146956928Y-113675000D01*
X146964992Y-113776121D01*
X147018106Y-113947634D01*
X147022313Y-113954019D01*
X146992539Y-113941503D01*
X146793710Y-113900689D01*
X146590741Y-113899272D01*
X146391363Y-113937306D01*
X146203168Y-114013341D01*
X146033327Y-114124482D01*
X145888308Y-114266496D01*
X145773634Y-114433972D01*
X145693674Y-114620533D01*
X145651473Y-114819071D01*
X145648639Y-115022026D01*
X145685280Y-115221665D01*
X145760000Y-115410386D01*
X145869953Y-115580999D01*
X146010950Y-115727006D01*
X146177622Y-115842846D01*
X146363620Y-115924106D01*
X146561859Y-115967692D01*
X146580651Y-115968086D01*
X146603506Y-115980341D01*
X146671059Y-116017478D01*
X146675240Y-116018804D01*
X146679113Y-116020881D01*
X146735329Y-116038067D01*
X146728648Y-116050526D01*
X146691522Y-116118059D01*
X146690195Y-116122242D01*
X146688119Y-116126114D01*
X146665563Y-116199893D01*
X146642247Y-116273394D01*
X146641758Y-116277758D01*
X146640474Y-116281956D01*
X146632676Y-116358716D01*
X146630919Y-116374379D01*
X146519975Y-116504550D01*
X146446190Y-116668237D01*
X146420928Y-116846000D01*
X146420928Y-117596000D01*
X146428992Y-117697121D01*
X146482106Y-117868634D01*
X146580900Y-118018559D01*
X146717550Y-118135025D01*
X146881237Y-118208810D01*
X147059000Y-118234072D01*
X147859000Y-118234072D01*
X147960121Y-118226008D01*
X148131634Y-118172894D01*
X148206037Y-118123866D01*
X148258215Y-118158730D01*
X148373777Y-118206597D01*
X148496458Y-118231000D01*
X148673250Y-118231000D01*
X148832000Y-118072250D01*
X148832000Y-117348000D01*
X149086000Y-117348000D01*
X149086000Y-118072250D01*
X149244750Y-118231000D01*
X149421542Y-118231000D01*
X149544223Y-118206597D01*
X149659785Y-118158730D01*
X149763789Y-118089237D01*
X149852237Y-118000789D01*
X149921730Y-117896785D01*
X149969597Y-117781223D01*
X149994000Y-117658542D01*
X149994000Y-117506750D01*
X149835250Y-117348000D01*
X149086000Y-117348000D01*
X148832000Y-117348000D01*
X148812000Y-117348000D01*
X148812000Y-117094000D01*
X148832000Y-117094000D01*
X148832000Y-116369750D01*
X148768813Y-116306563D01*
X148813970Y-116252747D01*
X148816085Y-116248900D01*
X148818872Y-116245507D01*
X148855341Y-116177494D01*
X148857469Y-116173623D01*
X148927634Y-116151894D01*
X149077559Y-116053100D01*
X149194025Y-115916450D01*
X149222226Y-115853887D01*
X149316900Y-115997559D01*
X149453550Y-116114025D01*
X149529416Y-116148223D01*
X149549715Y-116218092D01*
X149551734Y-116221986D01*
X149553004Y-116226194D01*
X149561764Y-116242669D01*
X149544223Y-116235403D01*
X149421542Y-116211000D01*
X149244750Y-116211000D01*
X149086000Y-116369750D01*
X149086000Y-117094000D01*
X149835250Y-117094000D01*
X149994000Y-116935250D01*
X149994000Y-116783458D01*
X149987646Y-116751514D01*
X150031566Y-116795434D01*
X150091155Y-116844382D01*
X150150253Y-116893970D01*
X150154100Y-116896085D01*
X150157493Y-116898872D01*
X150225471Y-116935321D01*
X150293059Y-116972478D01*
X150297244Y-116973806D01*
X150301113Y-116975880D01*
X150374861Y-116998427D01*
X150448394Y-117021753D01*
X150452758Y-117022243D01*
X150456956Y-117023526D01*
X150533671Y-117031319D01*
X150610342Y-117039919D01*
X150618924Y-117039979D01*
X150619085Y-117039995D01*
X150619235Y-117039981D01*
X150622000Y-117040000D01*
X151279810Y-117040000D01*
X151384622Y-117112846D01*
X151570620Y-117194106D01*
X151768859Y-117237692D01*
X151971788Y-117241943D01*
X152171679Y-117206697D01*
X152360916Y-117133296D01*
X152532293Y-117024537D01*
X152679281Y-116884563D01*
X152796282Y-116718703D01*
X152878839Y-116533278D01*
X152923807Y-116335348D01*
X152927044Y-116103513D01*
X152912079Y-116027934D01*
X152948785Y-116012730D01*
X153052789Y-115943237D01*
X153141237Y-115854789D01*
X153210730Y-115750785D01*
X153258597Y-115635223D01*
X153283000Y-115512542D01*
X153283000Y-115335750D01*
X153124250Y-115177000D01*
X152400000Y-115177000D01*
X152400000Y-115197000D01*
X152172884Y-115197000D01*
X152177441Y-115182093D01*
X152200753Y-115108606D01*
X152201242Y-115104242D01*
X152202526Y-115100044D01*
X152210319Y-115023329D01*
X152218919Y-114946658D01*
X152218979Y-114938076D01*
X152218995Y-114937915D01*
X152218981Y-114937765D01*
X152219000Y-114935000D01*
X152219000Y-114903000D01*
X152400000Y-114903000D01*
X152400000Y-114923000D01*
X153124250Y-114923000D01*
X153283000Y-114764250D01*
X153283000Y-114587458D01*
X153258597Y-114464777D01*
X153210730Y-114349215D01*
X153178677Y-114301244D01*
X153187025Y-114291450D01*
X153260810Y-114127763D01*
X153267175Y-114082977D01*
X154271249Y-115087051D01*
X154290872Y-115193968D01*
X154358372Y-115364454D01*
X154457701Y-115518583D01*
X154585076Y-115650484D01*
X154735644Y-115755131D01*
X154903671Y-115828540D01*
X155082757Y-115867915D01*
X155266079Y-115871755D01*
X155296928Y-115866315D01*
X155296928Y-115870000D01*
X155304992Y-115971121D01*
X155358106Y-116142634D01*
X155456900Y-116292559D01*
X155593550Y-116409025D01*
X155757237Y-116482810D01*
X155935000Y-116508072D01*
X157435000Y-116508072D01*
X157536121Y-116500008D01*
X157707634Y-116446894D01*
X157777715Y-116400714D01*
X157810747Y-116397475D01*
X157887600Y-116390751D01*
X157891814Y-116389527D01*
X157896186Y-116389098D01*
X157970081Y-116366788D01*
X158044092Y-116345285D01*
X158047986Y-116343266D01*
X158052194Y-116341996D01*
X158120311Y-116305777D01*
X158188774Y-116270290D01*
X158192207Y-116267549D01*
X158196082Y-116265489D01*
X158244000Y-116226408D01*
X158244000Y-116586000D01*
X158245452Y-116600806D01*
X158244579Y-116615655D01*
X158252677Y-116674495D01*
X158258474Y-116733618D01*
X158262774Y-116747860D01*
X158264802Y-116762596D01*
X158284175Y-116818745D01*
X158301345Y-116875613D01*
X158308329Y-116888749D01*
X158313181Y-116902810D01*
X158343091Y-116954126D01*
X158370980Y-117006578D01*
X158380382Y-117018106D01*
X158387873Y-117030958D01*
X158427179Y-117075484D01*
X158464726Y-117121522D01*
X158476191Y-117131007D01*
X158486033Y-117142156D01*
X158533234Y-117178197D01*
X158579013Y-117216069D01*
X158592100Y-117223145D01*
X158603922Y-117232172D01*
X158612983Y-117237695D01*
X159882983Y-117999695D01*
X159929498Y-118021746D01*
X159974604Y-118046543D01*
X159978459Y-118047766D01*
X160042900Y-118145559D01*
X160179550Y-118262025D01*
X160203897Y-118273000D01*
X142783000Y-118273000D01*
X142783000Y-103964000D01*
X160227281Y-103964000D01*
X160098441Y-104048900D01*
G36*
X149318750Y-114173000D02*
X149405415Y-114173000D01*
X149453550Y-114214025D01*
X149617237Y-114287810D01*
X149685668Y-114297535D01*
X149522366Y-114348106D01*
X149402640Y-114427000D01*
X149318750Y-114427000D01*
X149176876Y-114568874D01*
X149133100Y-114502441D01*
X148996450Y-114385975D01*
X148832763Y-114312190D01*
X148764332Y-114302465D01*
X148927634Y-114251894D01*
X149077559Y-114153100D01*
X149179381Y-114033631D01*
X149318750Y-114173000D01*
X149318750Y-114173000D01*
G37*
X149318750Y-114173000D02*
X149405415Y-114173000D01*
X149453550Y-114214025D01*
X149617237Y-114287810D01*
X149685668Y-114297535D01*
X149522366Y-114348106D01*
X149402640Y-114427000D01*
X149318750Y-114427000D01*
X149176876Y-114568874D01*
X149133100Y-114502441D01*
X148996450Y-114385975D01*
X148832763Y-114312190D01*
X148764332Y-114302465D01*
X148927634Y-114251894D01*
X149077559Y-114153100D01*
X149179381Y-114033631D01*
X149318750Y-114173000D01*
G36*
X169015000Y-106348297D02*
X168948875Y-106303695D01*
X168693966Y-106196541D01*
X168423098Y-106140939D01*
X168146590Y-106139009D01*
X167874972Y-106190823D01*
X167618592Y-106294407D01*
X167387214Y-106445817D01*
X167189651Y-106639284D01*
X167033429Y-106867441D01*
X166924498Y-107121596D01*
X166867008Y-107392068D01*
X166865116Y-107527568D01*
X166861928Y-107550000D01*
X166861928Y-108825000D01*
X166869992Y-108926121D01*
X166923106Y-109097634D01*
X166928439Y-109105728D01*
X166887190Y-109197237D01*
X166861928Y-109375000D01*
X166861928Y-109446468D01*
X166860597Y-109439777D01*
X166812730Y-109324215D01*
X166743237Y-109220211D01*
X166705914Y-109182888D01*
X166776369Y-109024642D01*
X166831113Y-108783684D01*
X166835054Y-108501451D01*
X166787059Y-108259058D01*
X166692897Y-108030603D01*
X166556155Y-107824790D01*
X166382041Y-107649455D01*
X166177186Y-107511280D01*
X165949395Y-107415525D01*
X165707343Y-107365839D01*
X165460250Y-107364114D01*
X165217528Y-107410415D01*
X164988422Y-107502980D01*
X164781659Y-107638283D01*
X164605113Y-107811169D01*
X164465511Y-108015053D01*
X164368168Y-108242170D01*
X164316793Y-108483870D01*
X164313343Y-108730944D01*
X164357949Y-108973984D01*
X164441632Y-109185342D01*
X164406763Y-109220211D01*
X164337270Y-109324215D01*
X164289403Y-109439777D01*
X164265000Y-109562458D01*
X164265000Y-109566250D01*
X164423750Y-109725000D01*
X164586553Y-109725000D01*
X164477441Y-109796900D01*
X164360975Y-109933550D01*
X164357053Y-109942251D01*
X163955000Y-109540198D01*
X163955000Y-109474000D01*
X163948149Y-109404123D01*
X163942031Y-109334197D01*
X163940916Y-109330359D01*
X163940526Y-109326382D01*
X163920236Y-109259179D01*
X163900649Y-109191760D01*
X163898810Y-109188212D01*
X163897655Y-109184387D01*
X163864691Y-109122390D01*
X163832389Y-109060074D01*
X163829897Y-109056953D01*
X163828020Y-109053422D01*
X163783641Y-108999007D01*
X163739852Y-108944154D01*
X163734369Y-108938594D01*
X163734274Y-108938478D01*
X163734166Y-108938389D01*
X163732401Y-108936599D01*
X163478401Y-108682599D01*
X163424145Y-108638032D01*
X163382985Y-108603495D01*
X163374440Y-108590528D01*
X163447810Y-108427763D01*
X163473072Y-108250000D01*
X163473072Y-107650000D01*
X163465008Y-107548879D01*
X163411894Y-107377366D01*
X163374440Y-107320528D01*
X163447810Y-107157763D01*
X163473072Y-106980000D01*
X163473072Y-106380000D01*
X163465008Y-106278879D01*
X163411894Y-106107366D01*
X163313100Y-105957441D01*
X163176450Y-105840975D01*
X163142694Y-105825759D01*
X163225789Y-105770237D01*
X163314237Y-105681789D01*
X163383730Y-105577785D01*
X163431597Y-105462223D01*
X163456000Y-105339542D01*
X163456000Y-105187750D01*
X163297250Y-105029000D01*
X162548000Y-105029000D01*
X162548000Y-105049000D01*
X162294000Y-105049000D01*
X162294000Y-105029000D01*
X162274000Y-105029000D01*
X162274000Y-104775000D01*
X162294000Y-104775000D01*
X162294000Y-104755000D01*
X162548000Y-104755000D01*
X162548000Y-104775000D01*
X163297250Y-104775000D01*
X163456000Y-104616250D01*
X163456000Y-104464458D01*
X163431597Y-104341777D01*
X163383730Y-104226215D01*
X163314237Y-104122211D01*
X163225789Y-104033763D01*
X163121785Y-103964270D01*
X163121133Y-103964000D01*
X169015000Y-103964000D01*
X169015000Y-106348297D01*
X169015000Y-106348297D01*
G37*
X169015000Y-106348297D02*
X168948875Y-106303695D01*
X168693966Y-106196541D01*
X168423098Y-106140939D01*
X168146590Y-106139009D01*
X167874972Y-106190823D01*
X167618592Y-106294407D01*
X167387214Y-106445817D01*
X167189651Y-106639284D01*
X167033429Y-106867441D01*
X166924498Y-107121596D01*
X166867008Y-107392068D01*
X166865116Y-107527568D01*
X166861928Y-107550000D01*
X166861928Y-108825000D01*
X166869992Y-108926121D01*
X166923106Y-109097634D01*
X166928439Y-109105728D01*
X166887190Y-109197237D01*
X166861928Y-109375000D01*
X166861928Y-109446468D01*
X166860597Y-109439777D01*
X166812730Y-109324215D01*
X166743237Y-109220211D01*
X166705914Y-109182888D01*
X166776369Y-109024642D01*
X166831113Y-108783684D01*
X166835054Y-108501451D01*
X166787059Y-108259058D01*
X166692897Y-108030603D01*
X166556155Y-107824790D01*
X166382041Y-107649455D01*
X166177186Y-107511280D01*
X165949395Y-107415525D01*
X165707343Y-107365839D01*
X165460250Y-107364114D01*
X165217528Y-107410415D01*
X164988422Y-107502980D01*
X164781659Y-107638283D01*
X164605113Y-107811169D01*
X164465511Y-108015053D01*
X164368168Y-108242170D01*
X164316793Y-108483870D01*
X164313343Y-108730944D01*
X164357949Y-108973984D01*
X164441632Y-109185342D01*
X164406763Y-109220211D01*
X164337270Y-109324215D01*
X164289403Y-109439777D01*
X164265000Y-109562458D01*
X164265000Y-109566250D01*
X164423750Y-109725000D01*
X164586553Y-109725000D01*
X164477441Y-109796900D01*
X164360975Y-109933550D01*
X164357053Y-109942251D01*
X163955000Y-109540198D01*
X163955000Y-109474000D01*
X163948149Y-109404123D01*
X163942031Y-109334197D01*
X163940916Y-109330359D01*
X163940526Y-109326382D01*
X163920236Y-109259179D01*
X163900649Y-109191760D01*
X163898810Y-109188212D01*
X163897655Y-109184387D01*
X163864691Y-109122390D01*
X163832389Y-109060074D01*
X163829897Y-109056953D01*
X163828020Y-109053422D01*
X163783641Y-108999007D01*
X163739852Y-108944154D01*
X163734369Y-108938594D01*
X163734274Y-108938478D01*
X163734166Y-108938389D01*
X163732401Y-108936599D01*
X163478401Y-108682599D01*
X163424145Y-108638032D01*
X163382985Y-108603495D01*
X163374440Y-108590528D01*
X163447810Y-108427763D01*
X163473072Y-108250000D01*
X163473072Y-107650000D01*
X163465008Y-107548879D01*
X163411894Y-107377366D01*
X163374440Y-107320528D01*
X163447810Y-107157763D01*
X163473072Y-106980000D01*
X163473072Y-106380000D01*
X163465008Y-106278879D01*
X163411894Y-106107366D01*
X163313100Y-105957441D01*
X163176450Y-105840975D01*
X163142694Y-105825759D01*
X163225789Y-105770237D01*
X163314237Y-105681789D01*
X163383730Y-105577785D01*
X163431597Y-105462223D01*
X163456000Y-105339542D01*
X163456000Y-105187750D01*
X163297250Y-105029000D01*
X162548000Y-105029000D01*
X162548000Y-105049000D01*
X162294000Y-105049000D01*
X162294000Y-105029000D01*
X162274000Y-105029000D01*
X162274000Y-104775000D01*
X162294000Y-104775000D01*
X162294000Y-104755000D01*
X162548000Y-104755000D01*
X162548000Y-104775000D01*
X163297250Y-104775000D01*
X163456000Y-104616250D01*
X163456000Y-104464458D01*
X163431597Y-104341777D01*
X163383730Y-104226215D01*
X163314237Y-104122211D01*
X163225789Y-104033763D01*
X163121785Y-103964270D01*
X163121133Y-103964000D01*
X169015000Y-103964000D01*
X169015000Y-106348297D01*
M02*
