G04 #@! TF.FileFunction,Copper,L2,Bot,Signal*
%FSLAX46Y46*%
G04 Gerber Fmt 4.6, Leading zero omitted, Abs format (unit mm)*
G04 Created by KiCad (PCBNEW 4.0.7) date 04/02/19 22:13:27*
%MOMM*%
%LPD*%
G01*
G04 APERTURE LIST*
%ADD10C,0.100000*%
%ADD11R,2.000000X1.020000*%
%ADD12C,1.550000*%
%ADD13C,1.250000*%
%ADD14R,1.020000X3.170000*%
%ADD15C,0.800000*%
%ADD16C,0.600000*%
%ADD17C,0.400000*%
%ADD18C,0.250000*%
%ADD19C,0.254000*%
G04 APERTURE END LIST*
D10*
D11*
X153670000Y-117475000D03*
X153670000Y-114935000D03*
X153670000Y-112395000D03*
X153670000Y-109855000D03*
X153670000Y-107315000D03*
X153670000Y-104775000D03*
D12*
X168275000Y-107550000D03*
X168275000Y-114700000D03*
D13*
X165575000Y-113625000D03*
X165575000Y-108625000D03*
D14*
X162560000Y-105410000D03*
X157480000Y-105410000D03*
X160020000Y-105410000D03*
D15*
X156845000Y-117729000D03*
X166116000Y-104775000D03*
X164338000Y-107061000D03*
X167767000Y-104775000D03*
X165989000Y-116459000D03*
X167640000Y-116459000D03*
X164338000Y-115697000D03*
X149733000Y-104521000D03*
X151892000Y-116205000D03*
X163957000Y-113538000D03*
D16*
X154686000Y-106172000D03*
D15*
X158242000Y-114046000D03*
X158750000Y-105410000D03*
X146685000Y-114935000D03*
X158242000Y-115062000D03*
X160020000Y-108077000D03*
D16*
X159893000Y-112395000D03*
X146812000Y-105791000D03*
X145542000Y-110998000D03*
X159893000Y-114046000D03*
X166878000Y-111633000D03*
X163703000Y-112522000D03*
X153670000Y-106045000D03*
X154686000Y-108585000D03*
X152908000Y-108585000D03*
X155194000Y-114935000D03*
D17*
X153670000Y-117475000D02*
X156591000Y-117475000D01*
X156591000Y-117475000D02*
X156845000Y-117729000D01*
X153670000Y-117475000D02*
X145669000Y-117475000D01*
X145542000Y-104521000D02*
X149733000Y-104521000D01*
X144145000Y-105918000D02*
X145542000Y-104521000D01*
X144145000Y-115951000D02*
X144145000Y-105918000D01*
X145669000Y-117475000D02*
X144145000Y-115951000D01*
X163258500Y-114236500D02*
X161290000Y-116205000D01*
X161290000Y-116205000D02*
X151892000Y-116205000D01*
X162560000Y-105410000D02*
X162560000Y-113538000D01*
X162560000Y-113538000D02*
X163258500Y-114236500D01*
X163957000Y-113538000D02*
X163258500Y-114236500D01*
D18*
X157480000Y-105410000D02*
X155321000Y-105410000D01*
X155321000Y-105410000D02*
X155321000Y-106172000D01*
X155321000Y-106172000D02*
X154686000Y-106172000D01*
D17*
X158750000Y-105410000D02*
X157480000Y-105410000D01*
X152146000Y-113665000D02*
X157861000Y-113665000D01*
X157861000Y-113665000D02*
X158242000Y-114046000D01*
X147955000Y-113665000D02*
X152146000Y-113665000D01*
X146685000Y-114935000D02*
X147955000Y-113665000D01*
X153670000Y-112395000D02*
X156210000Y-112395000D01*
X159131000Y-113665000D02*
X159131000Y-115062000D01*
X158369000Y-112903000D02*
X159131000Y-113665000D01*
X156718000Y-112903000D02*
X158369000Y-112903000D01*
X156210000Y-112395000D02*
X156718000Y-112903000D01*
X160655000Y-112395000D02*
X160655000Y-112395000D01*
X160655000Y-115062000D02*
X160655000Y-112395000D01*
X158242000Y-115062000D02*
X159131000Y-115062000D01*
X159131000Y-115062000D02*
X160655000Y-115062000D01*
X160655000Y-108077000D02*
X160020000Y-108077000D01*
X160655000Y-112395000D02*
X160655000Y-108077000D01*
X160020000Y-105410000D02*
X160020000Y-108077000D01*
D18*
X159893000Y-112395000D02*
X155321000Y-108077000D01*
X155321000Y-108077000D02*
X155321000Y-107315000D01*
X155321000Y-107315000D02*
X153670000Y-107315000D01*
X153670000Y-107315000D02*
X148336000Y-107315000D01*
X148336000Y-107315000D02*
X146812000Y-105791000D01*
X146685000Y-109855000D02*
X153670000Y-109855000D01*
X145542000Y-110998000D02*
X146685000Y-109855000D01*
X156210000Y-109855000D02*
X153670000Y-109855000D01*
X159766000Y-113411000D02*
X156210000Y-109855000D01*
X159766000Y-113919000D02*
X159766000Y-113411000D01*
X159893000Y-114046000D02*
X159766000Y-113919000D01*
X164592000Y-111633000D02*
X166878000Y-111633000D01*
X163703000Y-112522000D02*
X164592000Y-111633000D01*
X153670000Y-106045000D02*
X153670000Y-104775000D01*
X153670000Y-114935000D02*
X155194000Y-114935000D01*
X152908000Y-108585000D02*
X154686000Y-108585000D01*
D19*
G36*
X152057190Y-104087237D02*
X152031928Y-104265000D01*
X152031928Y-105285000D01*
X152039992Y-105386121D01*
X152093106Y-105557634D01*
X152191900Y-105707559D01*
X152328550Y-105824025D01*
X152492237Y-105897810D01*
X152670000Y-105923072D01*
X152739987Y-105923072D01*
X152736331Y-105940272D01*
X152733771Y-106123617D01*
X152741720Y-106166928D01*
X152670000Y-106166928D01*
X152568879Y-106174992D01*
X152397366Y-106228106D01*
X152247441Y-106326900D01*
X152130975Y-106463550D01*
X152089752Y-106555000D01*
X148650802Y-106555000D01*
X147735169Y-105639367D01*
X147711425Y-105519448D01*
X147641550Y-105349920D01*
X147540079Y-105197193D01*
X147410875Y-105067084D01*
X147258860Y-104964549D01*
X147089825Y-104893493D01*
X146910207Y-104856623D01*
X146726849Y-104855343D01*
X146546733Y-104889701D01*
X146376722Y-104958390D01*
X146223291Y-105058793D01*
X146092283Y-105187086D01*
X145988689Y-105338381D01*
X145916454Y-105506916D01*
X145878331Y-105686272D01*
X145875771Y-105869617D01*
X145908872Y-106049968D01*
X145976372Y-106220454D01*
X146075701Y-106374583D01*
X146203076Y-106506484D01*
X146353644Y-106611131D01*
X146521671Y-106684540D01*
X146661477Y-106715279D01*
X147798599Y-107852401D01*
X147852855Y-107896968D01*
X147906625Y-107942086D01*
X147910126Y-107944011D01*
X147913215Y-107946548D01*
X147975067Y-107979713D01*
X148036604Y-108013543D01*
X148040416Y-108014752D01*
X148043935Y-108016639D01*
X148111043Y-108037156D01*
X148177987Y-108058392D01*
X148181958Y-108058837D01*
X148185780Y-108060006D01*
X148255610Y-108067099D01*
X148325389Y-108074926D01*
X148333204Y-108074981D01*
X148333347Y-108074995D01*
X148333480Y-108074982D01*
X148336000Y-108075000D01*
X152086097Y-108075000D01*
X152093106Y-108097634D01*
X152100646Y-108109076D01*
X152084689Y-108132381D01*
X152012454Y-108300916D01*
X151974331Y-108480272D01*
X151971771Y-108663617D01*
X152004872Y-108843968D01*
X152072372Y-109014454D01*
X152103963Y-109063474D01*
X152089752Y-109095000D01*
X146685000Y-109095000D01*
X146615123Y-109101851D01*
X146545197Y-109107969D01*
X146541359Y-109109084D01*
X146537382Y-109109474D01*
X146470179Y-109129764D01*
X146402760Y-109149351D01*
X146399212Y-109151190D01*
X146395387Y-109152345D01*
X146333429Y-109185288D01*
X146271074Y-109217610D01*
X146267949Y-109220105D01*
X146264422Y-109221980D01*
X146210035Y-109266337D01*
X146155154Y-109310148D01*
X146149594Y-109315631D01*
X146149478Y-109315726D01*
X146149389Y-109315834D01*
X146147599Y-109317599D01*
X145390128Y-110075070D01*
X145276733Y-110096701D01*
X145106722Y-110165390D01*
X144953291Y-110265793D01*
X144822283Y-110394086D01*
X144718689Y-110545381D01*
X144646454Y-110713916D01*
X144608331Y-110893272D01*
X144605771Y-111076617D01*
X144638872Y-111256968D01*
X144706372Y-111427454D01*
X144805701Y-111581583D01*
X144933076Y-111713484D01*
X145083644Y-111818131D01*
X145251671Y-111891540D01*
X145430757Y-111930915D01*
X145614079Y-111934755D01*
X145794657Y-111902914D01*
X145965610Y-111836606D01*
X146120429Y-111738355D01*
X146253215Y-111611904D01*
X146358911Y-111462070D01*
X146433492Y-111294560D01*
X146466786Y-111148016D01*
X146999802Y-110615000D01*
X152086097Y-110615000D01*
X152093106Y-110637634D01*
X152191900Y-110787559D01*
X152328550Y-110904025D01*
X152492237Y-110977810D01*
X152670000Y-111003072D01*
X154670000Y-111003072D01*
X154771121Y-110995008D01*
X154942634Y-110941894D01*
X155092559Y-110843100D01*
X155209025Y-110706450D01*
X155250248Y-110615000D01*
X155895198Y-110615000D01*
X157348198Y-112068000D01*
X157063869Y-112068000D01*
X156800434Y-111804566D01*
X156740818Y-111755596D01*
X156681747Y-111706030D01*
X156677904Y-111703917D01*
X156674507Y-111701127D01*
X156606474Y-111664648D01*
X156538941Y-111627522D01*
X156534758Y-111626195D01*
X156530886Y-111624119D01*
X156457107Y-111601563D01*
X156383606Y-111578247D01*
X156379242Y-111577758D01*
X156375044Y-111576474D01*
X156298284Y-111568676D01*
X156221658Y-111560081D01*
X156213087Y-111560021D01*
X156212915Y-111560004D01*
X156212755Y-111560019D01*
X156210000Y-111560000D01*
X155212387Y-111560000D01*
X155148100Y-111462441D01*
X155011450Y-111345975D01*
X154847763Y-111272190D01*
X154670000Y-111246928D01*
X152670000Y-111246928D01*
X152568879Y-111254992D01*
X152397366Y-111308106D01*
X152247441Y-111406900D01*
X152130975Y-111543550D01*
X152057190Y-111707237D01*
X152031928Y-111885000D01*
X152031928Y-112830000D01*
X147955000Y-112830000D01*
X147878208Y-112837529D01*
X147801400Y-112844249D01*
X147797186Y-112845473D01*
X147792814Y-112845902D01*
X147718933Y-112868208D01*
X147644907Y-112889715D01*
X147641011Y-112891734D01*
X147636806Y-112893004D01*
X147568668Y-112929234D01*
X147500226Y-112964711D01*
X147496796Y-112967449D01*
X147492918Y-112969511D01*
X147433131Y-113018272D01*
X147372866Y-113066380D01*
X147366761Y-113072401D01*
X147366630Y-113072508D01*
X147366530Y-113072629D01*
X147364566Y-113074566D01*
X146527866Y-113911266D01*
X146391363Y-113937306D01*
X146203168Y-114013341D01*
X146033327Y-114124482D01*
X145888308Y-114266496D01*
X145773634Y-114433972D01*
X145693674Y-114620533D01*
X145651473Y-114819071D01*
X145648639Y-115022026D01*
X145685280Y-115221665D01*
X145760000Y-115410386D01*
X145869953Y-115580999D01*
X146010950Y-115727006D01*
X146177622Y-115842846D01*
X146363620Y-115924106D01*
X146561859Y-115967692D01*
X146764788Y-115971943D01*
X146964679Y-115936697D01*
X147153916Y-115863296D01*
X147325293Y-115754537D01*
X147472281Y-115614563D01*
X147589282Y-115448703D01*
X147671839Y-115263278D01*
X147711306Y-115089562D01*
X148300868Y-114500000D01*
X152031928Y-114500000D01*
X152031928Y-115177097D01*
X152000710Y-115170689D01*
X151797741Y-115169272D01*
X151598363Y-115207306D01*
X151410168Y-115283341D01*
X151240327Y-115394482D01*
X151095308Y-115536496D01*
X150980634Y-115703972D01*
X150900674Y-115890533D01*
X150858473Y-116089071D01*
X150855639Y-116292026D01*
X150892280Y-116491665D01*
X150967000Y-116680386D01*
X151076953Y-116850999D01*
X151217950Y-116997006D01*
X151384622Y-117112846D01*
X151570620Y-117194106D01*
X151768859Y-117237692D01*
X151971788Y-117241943D01*
X152070319Y-117224569D01*
X152193750Y-117348000D01*
X153543000Y-117348000D01*
X153543000Y-117328000D01*
X153797000Y-117328000D01*
X153797000Y-117348000D01*
X155146250Y-117348000D01*
X155305000Y-117189250D01*
X155305000Y-117040000D01*
X161290000Y-117040000D01*
X161366747Y-117032475D01*
X161443600Y-117025751D01*
X161447814Y-117024527D01*
X161452186Y-117024098D01*
X161526081Y-117001788D01*
X161600092Y-116980285D01*
X161603986Y-116978266D01*
X161608194Y-116976996D01*
X161676311Y-116940777D01*
X161744774Y-116905290D01*
X161748207Y-116902549D01*
X161752082Y-116900489D01*
X161811866Y-116851731D01*
X161872133Y-116803620D01*
X161878238Y-116797600D01*
X161878370Y-116797492D01*
X161878471Y-116797369D01*
X161880434Y-116795434D01*
X164114655Y-114561213D01*
X164236679Y-114539697D01*
X164425916Y-114466296D01*
X164562333Y-114379723D01*
X164582768Y-114411433D01*
X164754417Y-114589181D01*
X164957322Y-114730204D01*
X165183755Y-114829130D01*
X165425089Y-114882191D01*
X165672134Y-114887365D01*
X165915479Y-114844457D01*
X166145855Y-114755100D01*
X166354487Y-114622698D01*
X166533429Y-114452294D01*
X166675865Y-114250378D01*
X166776369Y-114024642D01*
X166831113Y-113783684D01*
X166835054Y-113501451D01*
X166787059Y-113259058D01*
X166692897Y-113030603D01*
X166556155Y-112824790D01*
X166382041Y-112649455D01*
X166177186Y-112511280D01*
X165949395Y-112415525D01*
X165839661Y-112393000D01*
X166333126Y-112393000D01*
X166419644Y-112453131D01*
X166587671Y-112526540D01*
X166766757Y-112565915D01*
X166950079Y-112569755D01*
X167130657Y-112537914D01*
X167301610Y-112471606D01*
X167456429Y-112373355D01*
X167589215Y-112246904D01*
X167694911Y-112097070D01*
X167769492Y-111929560D01*
X167810116Y-111750754D01*
X167813040Y-111541319D01*
X167777425Y-111361448D01*
X167707550Y-111191920D01*
X167606079Y-111039193D01*
X167476875Y-110909084D01*
X167324860Y-110806549D01*
X167155825Y-110735493D01*
X166976207Y-110698623D01*
X166792849Y-110697343D01*
X166612733Y-110731701D01*
X166442722Y-110800390D01*
X166331763Y-110873000D01*
X164592000Y-110873000D01*
X164522119Y-110879852D01*
X164452197Y-110885969D01*
X164448359Y-110887084D01*
X164444382Y-110887474D01*
X164377212Y-110907754D01*
X164309761Y-110927350D01*
X164306210Y-110929191D01*
X164302387Y-110930345D01*
X164240426Y-110963290D01*
X164178075Y-110995610D01*
X164174952Y-110998103D01*
X164171422Y-110999980D01*
X164117013Y-111044355D01*
X164062154Y-111088148D01*
X164056594Y-111093631D01*
X164056478Y-111093726D01*
X164056389Y-111093834D01*
X164054599Y-111095599D01*
X163551128Y-111599070D01*
X163437733Y-111620701D01*
X163395000Y-111637966D01*
X163395000Y-108730944D01*
X164313343Y-108730944D01*
X164357949Y-108973984D01*
X164448913Y-109203730D01*
X164582768Y-109411433D01*
X164754417Y-109589181D01*
X164957322Y-109730204D01*
X165183755Y-109829130D01*
X165425089Y-109882191D01*
X165672134Y-109887365D01*
X165915479Y-109844457D01*
X166145855Y-109755100D01*
X166354487Y-109622698D01*
X166533429Y-109452294D01*
X166675865Y-109250378D01*
X166776369Y-109024642D01*
X166831113Y-108783684D01*
X166835054Y-108501451D01*
X166787059Y-108259058D01*
X166692897Y-108030603D01*
X166556155Y-107824790D01*
X166382041Y-107649455D01*
X166177186Y-107511280D01*
X165949395Y-107415525D01*
X165707343Y-107365839D01*
X165460250Y-107364114D01*
X165217528Y-107410415D01*
X164988422Y-107502980D01*
X164781659Y-107638283D01*
X164605113Y-107811169D01*
X164465511Y-108015053D01*
X164368168Y-108242170D01*
X164316793Y-108483870D01*
X164313343Y-108730944D01*
X163395000Y-108730944D01*
X163395000Y-107537387D01*
X163492559Y-107473100D01*
X163609025Y-107336450D01*
X163682810Y-107172763D01*
X163708072Y-106995000D01*
X163708072Y-103964000D01*
X169015000Y-103964000D01*
X169015000Y-106348297D01*
X168948875Y-106303695D01*
X168693966Y-106196541D01*
X168423098Y-106140939D01*
X168146590Y-106139009D01*
X167874972Y-106190823D01*
X167618592Y-106294407D01*
X167387214Y-106445817D01*
X167189651Y-106639284D01*
X167033429Y-106867441D01*
X166924498Y-107121596D01*
X166867008Y-107392068D01*
X166863147Y-107668557D01*
X166913063Y-107940529D01*
X167014855Y-108197626D01*
X167164646Y-108430056D01*
X167356729Y-108628964D01*
X167583790Y-108786775D01*
X167837178Y-108897478D01*
X168107243Y-108956855D01*
X168383697Y-108962646D01*
X168656012Y-108914630D01*
X168913813Y-108814635D01*
X169015000Y-108750420D01*
X169015000Y-113498297D01*
X168948875Y-113453695D01*
X168693966Y-113346541D01*
X168423098Y-113290939D01*
X168146590Y-113289009D01*
X167874972Y-113340823D01*
X167618592Y-113444407D01*
X167387214Y-113595817D01*
X167189651Y-113789284D01*
X167033429Y-114017441D01*
X166924498Y-114271596D01*
X166867008Y-114542068D01*
X166863147Y-114818557D01*
X166913063Y-115090529D01*
X167014855Y-115347626D01*
X167164646Y-115580056D01*
X167356729Y-115778964D01*
X167583790Y-115936775D01*
X167837178Y-116047478D01*
X168107243Y-116106855D01*
X168383697Y-116112646D01*
X168656012Y-116064630D01*
X168913813Y-115964635D01*
X169015000Y-115900420D01*
X169015000Y-118273000D01*
X155238026Y-118273000D01*
X155280597Y-118170223D01*
X155305000Y-118047542D01*
X155305000Y-117760750D01*
X155146250Y-117602000D01*
X153797000Y-117602000D01*
X153797000Y-117622000D01*
X153543000Y-117622000D01*
X153543000Y-117602000D01*
X152193750Y-117602000D01*
X152035000Y-117760750D01*
X152035000Y-118047542D01*
X152059403Y-118170223D01*
X152101974Y-118273000D01*
X142783000Y-118273000D01*
X142783000Y-103964000D01*
X152112741Y-103964000D01*
X152057190Y-104087237D01*
X152057190Y-104087237D01*
G37*
X152057190Y-104087237D02*
X152031928Y-104265000D01*
X152031928Y-105285000D01*
X152039992Y-105386121D01*
X152093106Y-105557634D01*
X152191900Y-105707559D01*
X152328550Y-105824025D01*
X152492237Y-105897810D01*
X152670000Y-105923072D01*
X152739987Y-105923072D01*
X152736331Y-105940272D01*
X152733771Y-106123617D01*
X152741720Y-106166928D01*
X152670000Y-106166928D01*
X152568879Y-106174992D01*
X152397366Y-106228106D01*
X152247441Y-106326900D01*
X152130975Y-106463550D01*
X152089752Y-106555000D01*
X148650802Y-106555000D01*
X147735169Y-105639367D01*
X147711425Y-105519448D01*
X147641550Y-105349920D01*
X147540079Y-105197193D01*
X147410875Y-105067084D01*
X147258860Y-104964549D01*
X147089825Y-104893493D01*
X146910207Y-104856623D01*
X146726849Y-104855343D01*
X146546733Y-104889701D01*
X146376722Y-104958390D01*
X146223291Y-105058793D01*
X146092283Y-105187086D01*
X145988689Y-105338381D01*
X145916454Y-105506916D01*
X145878331Y-105686272D01*
X145875771Y-105869617D01*
X145908872Y-106049968D01*
X145976372Y-106220454D01*
X146075701Y-106374583D01*
X146203076Y-106506484D01*
X146353644Y-106611131D01*
X146521671Y-106684540D01*
X146661477Y-106715279D01*
X147798599Y-107852401D01*
X147852855Y-107896968D01*
X147906625Y-107942086D01*
X147910126Y-107944011D01*
X147913215Y-107946548D01*
X147975067Y-107979713D01*
X148036604Y-108013543D01*
X148040416Y-108014752D01*
X148043935Y-108016639D01*
X148111043Y-108037156D01*
X148177987Y-108058392D01*
X148181958Y-108058837D01*
X148185780Y-108060006D01*
X148255610Y-108067099D01*
X148325389Y-108074926D01*
X148333204Y-108074981D01*
X148333347Y-108074995D01*
X148333480Y-108074982D01*
X148336000Y-108075000D01*
X152086097Y-108075000D01*
X152093106Y-108097634D01*
X152100646Y-108109076D01*
X152084689Y-108132381D01*
X152012454Y-108300916D01*
X151974331Y-108480272D01*
X151971771Y-108663617D01*
X152004872Y-108843968D01*
X152072372Y-109014454D01*
X152103963Y-109063474D01*
X152089752Y-109095000D01*
X146685000Y-109095000D01*
X146615123Y-109101851D01*
X146545197Y-109107969D01*
X146541359Y-109109084D01*
X146537382Y-109109474D01*
X146470179Y-109129764D01*
X146402760Y-109149351D01*
X146399212Y-109151190D01*
X146395387Y-109152345D01*
X146333429Y-109185288D01*
X146271074Y-109217610D01*
X146267949Y-109220105D01*
X146264422Y-109221980D01*
X146210035Y-109266337D01*
X146155154Y-109310148D01*
X146149594Y-109315631D01*
X146149478Y-109315726D01*
X146149389Y-109315834D01*
X146147599Y-109317599D01*
X145390128Y-110075070D01*
X145276733Y-110096701D01*
X145106722Y-110165390D01*
X144953291Y-110265793D01*
X144822283Y-110394086D01*
X144718689Y-110545381D01*
X144646454Y-110713916D01*
X144608331Y-110893272D01*
X144605771Y-111076617D01*
X144638872Y-111256968D01*
X144706372Y-111427454D01*
X144805701Y-111581583D01*
X144933076Y-111713484D01*
X145083644Y-111818131D01*
X145251671Y-111891540D01*
X145430757Y-111930915D01*
X145614079Y-111934755D01*
X145794657Y-111902914D01*
X145965610Y-111836606D01*
X146120429Y-111738355D01*
X146253215Y-111611904D01*
X146358911Y-111462070D01*
X146433492Y-111294560D01*
X146466786Y-111148016D01*
X146999802Y-110615000D01*
X152086097Y-110615000D01*
X152093106Y-110637634D01*
X152191900Y-110787559D01*
X152328550Y-110904025D01*
X152492237Y-110977810D01*
X152670000Y-111003072D01*
X154670000Y-111003072D01*
X154771121Y-110995008D01*
X154942634Y-110941894D01*
X155092559Y-110843100D01*
X155209025Y-110706450D01*
X155250248Y-110615000D01*
X155895198Y-110615000D01*
X157348198Y-112068000D01*
X157063869Y-112068000D01*
X156800434Y-111804566D01*
X156740818Y-111755596D01*
X156681747Y-111706030D01*
X156677904Y-111703917D01*
X156674507Y-111701127D01*
X156606474Y-111664648D01*
X156538941Y-111627522D01*
X156534758Y-111626195D01*
X156530886Y-111624119D01*
X156457107Y-111601563D01*
X156383606Y-111578247D01*
X156379242Y-111577758D01*
X156375044Y-111576474D01*
X156298284Y-111568676D01*
X156221658Y-111560081D01*
X156213087Y-111560021D01*
X156212915Y-111560004D01*
X156212755Y-111560019D01*
X156210000Y-111560000D01*
X155212387Y-111560000D01*
X155148100Y-111462441D01*
X155011450Y-111345975D01*
X154847763Y-111272190D01*
X154670000Y-111246928D01*
X152670000Y-111246928D01*
X152568879Y-111254992D01*
X152397366Y-111308106D01*
X152247441Y-111406900D01*
X152130975Y-111543550D01*
X152057190Y-111707237D01*
X152031928Y-111885000D01*
X152031928Y-112830000D01*
X147955000Y-112830000D01*
X147878208Y-112837529D01*
X147801400Y-112844249D01*
X147797186Y-112845473D01*
X147792814Y-112845902D01*
X147718933Y-112868208D01*
X147644907Y-112889715D01*
X147641011Y-112891734D01*
X147636806Y-112893004D01*
X147568668Y-112929234D01*
X147500226Y-112964711D01*
X147496796Y-112967449D01*
X147492918Y-112969511D01*
X147433131Y-113018272D01*
X147372866Y-113066380D01*
X147366761Y-113072401D01*
X147366630Y-113072508D01*
X147366530Y-113072629D01*
X147364566Y-113074566D01*
X146527866Y-113911266D01*
X146391363Y-113937306D01*
X146203168Y-114013341D01*
X146033327Y-114124482D01*
X145888308Y-114266496D01*
X145773634Y-114433972D01*
X145693674Y-114620533D01*
X145651473Y-114819071D01*
X145648639Y-115022026D01*
X145685280Y-115221665D01*
X145760000Y-115410386D01*
X145869953Y-115580999D01*
X146010950Y-115727006D01*
X146177622Y-115842846D01*
X146363620Y-115924106D01*
X146561859Y-115967692D01*
X146764788Y-115971943D01*
X146964679Y-115936697D01*
X147153916Y-115863296D01*
X147325293Y-115754537D01*
X147472281Y-115614563D01*
X147589282Y-115448703D01*
X147671839Y-115263278D01*
X147711306Y-115089562D01*
X148300868Y-114500000D01*
X152031928Y-114500000D01*
X152031928Y-115177097D01*
X152000710Y-115170689D01*
X151797741Y-115169272D01*
X151598363Y-115207306D01*
X151410168Y-115283341D01*
X151240327Y-115394482D01*
X151095308Y-115536496D01*
X150980634Y-115703972D01*
X150900674Y-115890533D01*
X150858473Y-116089071D01*
X150855639Y-116292026D01*
X150892280Y-116491665D01*
X150967000Y-116680386D01*
X151076953Y-116850999D01*
X151217950Y-116997006D01*
X151384622Y-117112846D01*
X151570620Y-117194106D01*
X151768859Y-117237692D01*
X151971788Y-117241943D01*
X152070319Y-117224569D01*
X152193750Y-117348000D01*
X153543000Y-117348000D01*
X153543000Y-117328000D01*
X153797000Y-117328000D01*
X153797000Y-117348000D01*
X155146250Y-117348000D01*
X155305000Y-117189250D01*
X155305000Y-117040000D01*
X161290000Y-117040000D01*
X161366747Y-117032475D01*
X161443600Y-117025751D01*
X161447814Y-117024527D01*
X161452186Y-117024098D01*
X161526081Y-117001788D01*
X161600092Y-116980285D01*
X161603986Y-116978266D01*
X161608194Y-116976996D01*
X161676311Y-116940777D01*
X161744774Y-116905290D01*
X161748207Y-116902549D01*
X161752082Y-116900489D01*
X161811866Y-116851731D01*
X161872133Y-116803620D01*
X161878238Y-116797600D01*
X161878370Y-116797492D01*
X161878471Y-116797369D01*
X161880434Y-116795434D01*
X164114655Y-114561213D01*
X164236679Y-114539697D01*
X164425916Y-114466296D01*
X164562333Y-114379723D01*
X164582768Y-114411433D01*
X164754417Y-114589181D01*
X164957322Y-114730204D01*
X165183755Y-114829130D01*
X165425089Y-114882191D01*
X165672134Y-114887365D01*
X165915479Y-114844457D01*
X166145855Y-114755100D01*
X166354487Y-114622698D01*
X166533429Y-114452294D01*
X166675865Y-114250378D01*
X166776369Y-114024642D01*
X166831113Y-113783684D01*
X166835054Y-113501451D01*
X166787059Y-113259058D01*
X166692897Y-113030603D01*
X166556155Y-112824790D01*
X166382041Y-112649455D01*
X166177186Y-112511280D01*
X165949395Y-112415525D01*
X165839661Y-112393000D01*
X166333126Y-112393000D01*
X166419644Y-112453131D01*
X166587671Y-112526540D01*
X166766757Y-112565915D01*
X166950079Y-112569755D01*
X167130657Y-112537914D01*
X167301610Y-112471606D01*
X167456429Y-112373355D01*
X167589215Y-112246904D01*
X167694911Y-112097070D01*
X167769492Y-111929560D01*
X167810116Y-111750754D01*
X167813040Y-111541319D01*
X167777425Y-111361448D01*
X167707550Y-111191920D01*
X167606079Y-111039193D01*
X167476875Y-110909084D01*
X167324860Y-110806549D01*
X167155825Y-110735493D01*
X166976207Y-110698623D01*
X166792849Y-110697343D01*
X166612733Y-110731701D01*
X166442722Y-110800390D01*
X166331763Y-110873000D01*
X164592000Y-110873000D01*
X164522119Y-110879852D01*
X164452197Y-110885969D01*
X164448359Y-110887084D01*
X164444382Y-110887474D01*
X164377212Y-110907754D01*
X164309761Y-110927350D01*
X164306210Y-110929191D01*
X164302387Y-110930345D01*
X164240426Y-110963290D01*
X164178075Y-110995610D01*
X164174952Y-110998103D01*
X164171422Y-110999980D01*
X164117013Y-111044355D01*
X164062154Y-111088148D01*
X164056594Y-111093631D01*
X164056478Y-111093726D01*
X164056389Y-111093834D01*
X164054599Y-111095599D01*
X163551128Y-111599070D01*
X163437733Y-111620701D01*
X163395000Y-111637966D01*
X163395000Y-108730944D01*
X164313343Y-108730944D01*
X164357949Y-108973984D01*
X164448913Y-109203730D01*
X164582768Y-109411433D01*
X164754417Y-109589181D01*
X164957322Y-109730204D01*
X165183755Y-109829130D01*
X165425089Y-109882191D01*
X165672134Y-109887365D01*
X165915479Y-109844457D01*
X166145855Y-109755100D01*
X166354487Y-109622698D01*
X166533429Y-109452294D01*
X166675865Y-109250378D01*
X166776369Y-109024642D01*
X166831113Y-108783684D01*
X166835054Y-108501451D01*
X166787059Y-108259058D01*
X166692897Y-108030603D01*
X166556155Y-107824790D01*
X166382041Y-107649455D01*
X166177186Y-107511280D01*
X165949395Y-107415525D01*
X165707343Y-107365839D01*
X165460250Y-107364114D01*
X165217528Y-107410415D01*
X164988422Y-107502980D01*
X164781659Y-107638283D01*
X164605113Y-107811169D01*
X164465511Y-108015053D01*
X164368168Y-108242170D01*
X164316793Y-108483870D01*
X164313343Y-108730944D01*
X163395000Y-108730944D01*
X163395000Y-107537387D01*
X163492559Y-107473100D01*
X163609025Y-107336450D01*
X163682810Y-107172763D01*
X163708072Y-106995000D01*
X163708072Y-103964000D01*
X169015000Y-103964000D01*
X169015000Y-106348297D01*
X168948875Y-106303695D01*
X168693966Y-106196541D01*
X168423098Y-106140939D01*
X168146590Y-106139009D01*
X167874972Y-106190823D01*
X167618592Y-106294407D01*
X167387214Y-106445817D01*
X167189651Y-106639284D01*
X167033429Y-106867441D01*
X166924498Y-107121596D01*
X166867008Y-107392068D01*
X166863147Y-107668557D01*
X166913063Y-107940529D01*
X167014855Y-108197626D01*
X167164646Y-108430056D01*
X167356729Y-108628964D01*
X167583790Y-108786775D01*
X167837178Y-108897478D01*
X168107243Y-108956855D01*
X168383697Y-108962646D01*
X168656012Y-108914630D01*
X168913813Y-108814635D01*
X169015000Y-108750420D01*
X169015000Y-113498297D01*
X168948875Y-113453695D01*
X168693966Y-113346541D01*
X168423098Y-113290939D01*
X168146590Y-113289009D01*
X167874972Y-113340823D01*
X167618592Y-113444407D01*
X167387214Y-113595817D01*
X167189651Y-113789284D01*
X167033429Y-114017441D01*
X166924498Y-114271596D01*
X166867008Y-114542068D01*
X166863147Y-114818557D01*
X166913063Y-115090529D01*
X167014855Y-115347626D01*
X167164646Y-115580056D01*
X167356729Y-115778964D01*
X167583790Y-115936775D01*
X167837178Y-116047478D01*
X168107243Y-116106855D01*
X168383697Y-116112646D01*
X168656012Y-116064630D01*
X168913813Y-115964635D01*
X169015000Y-115900420D01*
X169015000Y-118273000D01*
X155238026Y-118273000D01*
X155280597Y-118170223D01*
X155305000Y-118047542D01*
X155305000Y-117760750D01*
X155146250Y-117602000D01*
X153797000Y-117602000D01*
X153797000Y-117622000D01*
X153543000Y-117622000D01*
X153543000Y-117602000D01*
X152193750Y-117602000D01*
X152035000Y-117760750D01*
X152035000Y-118047542D01*
X152059403Y-118170223D01*
X152101974Y-118273000D01*
X142783000Y-118273000D01*
X142783000Y-103964000D01*
X152112741Y-103964000D01*
X152057190Y-104087237D01*
M02*
