M48
;DRILL file {KiCad 4.0.7} date 04/02/19 22:13:30
;FORMAT={-:-/ absolute / metric / decimal}
FMAT,2
METRIC,TZ
T1C0.400
T2C0.600
T3C0.850
T4C1.150
%
G90
G05
M71
T1
X145.542Y-110.998
X146.812Y-105.791
X152.908Y-108.585
X153.67Y-106.045
X154.686Y-106.172
X154.686Y-108.585
X155.194Y-114.935
X159.893Y-112.395
X159.893Y-114.046
X163.703Y-112.522
X166.878Y-111.633
T2
X146.685Y-114.935
X149.733Y-104.521
X151.892Y-116.205
X156.845Y-117.729
X158.242Y-114.046
X158.242Y-115.062
X158.75Y-105.41
X160.02Y-108.077
X163.957Y-113.538
X164.338Y-107.061
X164.338Y-115.697
X165.989Y-116.459
X166.116Y-104.775
X167.64Y-116.459
X167.767Y-104.775
T3
X165.575Y-108.625
X165.575Y-113.625
T4
X168.275Y-107.55
X168.275Y-114.7
T0
M30
