G04 #@! TF.FileFunction,Soldermask,Top*
%FSLAX46Y46*%
G04 Gerber Fmt 4.6, Leading zero omitted, Abs format (unit mm)*
G04 Created by KiCad (PCBNEW 4.0.7) date 04/02/19 22:13:27*
%MOMM*%
%LPD*%
G01*
G04 APERTURE LIST*
%ADD10C,0.100000*%
%ADD11R,1.150000X1.200000*%
%ADD12R,1.200000X1.150000*%
%ADD13R,1.600000X1.600000*%
%ADD14R,1.950000X1.900000*%
%ADD15R,1.950000X1.675000*%
%ADD16C,1.950000*%
%ADD17C,1.650000*%
%ADD18R,1.750000X0.800000*%
%ADD19R,1.300000X0.900000*%
%ADD20R,1.460000X1.050000*%
%ADD21R,1.900000X1.000000*%
G04 APERTURE END LIST*
D10*
D11*
X152273000Y-115050000D03*
X152273000Y-113550000D03*
D12*
X160921000Y-117348000D03*
X162421000Y-117348000D03*
X148959000Y-117221000D03*
X147459000Y-117221000D03*
X162421000Y-104902000D03*
X160921000Y-104902000D03*
D13*
X149055000Y-107315000D03*
X146855000Y-107315000D03*
X149055000Y-109855000D03*
X146855000Y-109855000D03*
D14*
X168275000Y-110125000D03*
D15*
X168275000Y-108187500D03*
D16*
X168275000Y-107550000D03*
X168275000Y-114700000D03*
D17*
X165575000Y-113625000D03*
D18*
X165575000Y-112425000D03*
X165575000Y-111775000D03*
X165575000Y-109825000D03*
X165575000Y-110475000D03*
X165575000Y-111125000D03*
D17*
X165575000Y-108625000D03*
D15*
X168275000Y-114062500D03*
D14*
X168275000Y-112125000D03*
D19*
X151130000Y-108065000D03*
X151130000Y-106565000D03*
X151130000Y-109105000D03*
X151130000Y-110605000D03*
D20*
X150325000Y-115250000D03*
X150325000Y-114300000D03*
X150325000Y-113350000D03*
X148125000Y-113350000D03*
X148125000Y-115250000D03*
D21*
X162085000Y-115570000D03*
X162085000Y-114300000D03*
X162085000Y-113030000D03*
X162085000Y-111760000D03*
X162085000Y-110490000D03*
X162085000Y-109220000D03*
X162085000Y-107950000D03*
X162085000Y-106680000D03*
X156685000Y-106680000D03*
X156685000Y-107950000D03*
X156685000Y-109220000D03*
X156685000Y-110490000D03*
X156685000Y-111760000D03*
X156685000Y-113030000D03*
X156685000Y-114300000D03*
X156685000Y-115570000D03*
M02*
